<svg width="20" height="20" fill="none" xmlns="http://www.w3.org/2000/svg"><path d="m9.208 10.107-.546 2.214c.674.17 2.753.844 3.061-.404.321-1.303-1.841-1.64-2.515-1.81Zm.745-3.022-.495 2.008c.561.142 2.292.72 2.572-.417.292-1.185-1.516-1.449-2.077-1.591ZM10 .833a9.167 9.167 0 1 0 0 18.334A9.167 9.167 0 0 0 10 .833Zm3.995 7.86a1.598 1.598 0 0 1-1.27 1.478 1.771 1.771 0 0 1 .914 2.439c-.537 1.55-1.812 1.682-3.508 1.357l-.411 1.669-.995-.252.406-1.645a32.268 32.268 0 0 1-.792-.208l-.408 1.654-.994-.25.413-1.673c-.233-.06-.468-.123-.71-.184l-1.294-.326.494-1.152s.734.198.723.183a.363.363 0 0 0 .456-.238l1.116-4.528a.534.534 0 0 0-.463-.585c.014-.01-.724-.181-.724-.181l.266-1.074 1.37.346v.006c.206.05.419.1.635.15l.407-1.652.995.251-.4 1.619c.267.062.535.124.797.19l.396-1.609.995.251-.408 1.652c1.256.437 2.175 1.094 1.994 2.313Z" fill="#89BF19"/></svg>