<svg width="18" height="14" fill="none" xmlns="http://www.w3.org/2000/svg"><path d="m17.463 13.331-.864-5.328a.171.171 0 0 0-.17-.144h-5.62a.17.17 0 0 0-.17.144l-.863 5.328c-.003.009-.003.02-.003.028 0 .095.078.172.172.172h7.348c.009 0 .02 0 .028-.002a.173.173 0 0 0 .142-.198ZM7.36 8.003a.171.171 0 0 0-.17-.144h-5.62a.171.171 0 0 0-.17.144l-.864 5.328c-.002.009-.002.02-.002.028 0 .095.078.172.172.172h7.348c.008 0 .019 0 .028-.002a.171.171 0 0 0 .141-.198l-.863-5.328ZM5.348 6.141h7.347c.009 0 .02 0 .028-.003a.171.171 0 0 0 .142-.197L12.001.613a.171.171 0 0 0-.17-.144h-5.62a.171.171 0 0 0-.17.144L5.179 5.94c-.002.008-.002.02-.002.028 0 .094.077.172.172.172Z" fill="#89BF19"/></svg>