<svg width="18" height="18" fill="none" xmlns="http://www.w3.org/2000/svg"><path d="M1.667 17.25a.888.888 0 0 1-.654-.264.884.884 0 0 1-.263-.653c0-.26.088-.477.264-.653a.884.884 0 0 1 .653-.263h.916v-5.5h-.916a.888.888 0 0 1-.654-.264A.883.883 0 0 1 .75 9c0-.26.088-.478.264-.654a.883.883 0 0 1 .653-.263h.916v-5.5h-.916a.888.888 0 0 1-.654-.264.883.883 0 0 1-.263-.652c0-.26.088-.478.264-.654A.883.883 0 0 1 1.667.75h14.666c.26 0 .478.088.654.264a.884.884 0 0 1 .263.653c0 .26-.088.477-.264.653a.884.884 0 0 1-.653.263h-.916v5.5h.916c.26 0 .478.088.654.264A.883.883 0 0 1 17.25 9c0 .26-.088.478-.264.654a.884.884 0 0 1-.653.263h-.916v5.5h.916c.26 0 .478.088.654.264a.883.883 0 0 1 .263.652c0 .26-.088.478-.264.654a.884.884 0 0 1-.653.263H1.667ZM9 12.667a2.67 2.67 0 0 0 1.948-.791 2.588 2.588 0 0 0 .802-1.913c0-.596-.172-1.108-.516-1.536A130.811 130.811 0 0 0 9 5.792C7.854 7.106 7.11 7.98 6.765 8.416c-.344.436-.516.951-.515 1.546 0 .75.267 1.387.802 1.914.535.526 1.184.79 1.948.79Z" fill="#89BF19"/></svg>