<svg width="165" height="49" fill="none" xmlns="http://www.w3.org/2000/svg"><g clip-path="url('#clip0_1_657')"><path d="M83.482 19.505a8.673 8.673 0 0 1-1.991-6.289 8.66 8.66 0 0 1 1.99-6.206 8.185 8.185 0 0 1 6.124-2.042h5.004v2.845h-4.282a7.485 7.485 0 0 0-3.054.558 3.228 3.228 0 0 0-1.637 1.701 8.153 8.153 0 0 0-.518 3.172 8.33 8.33 0 0 0 .505 3.17c.32.745.91 1.343 1.65 1.675a7.402 7.402 0 0 0 3.095.53h4.391v2.914h-5.127a8.304 8.304 0 0 1-6.15-2.028ZM100.773 14.577v6.956h-3.396V4.9h3.396v6.806h7.718V4.9h3.423v16.633h-3.409v-6.956h-7.732ZM117.027 19.627a8.839 8.839 0 0 1-2.127-6.41 8.783 8.783 0 0 1 2.127-6.411 8.31 8.31 0 0 1 6.246-2.178 8.43 8.43 0 0 1 6.272 2.178 8.835 8.835 0 0 1 2.128 6.41 8.85 8.85 0 0 1-2.128 6.425 10.032 10.032 0 0 1-12.504 0l-.014-.014Zm9.791-2.123a6.357 6.357 0 0 0 1.214-4.288 6.458 6.458 0 0 0-1.214-4.3 5.376 5.376 0 0 0-7.173 0 6.361 6.361 0 0 0-1.213 4.287 6.383 6.383 0 0 0 1.2 4.3 5.378 5.378 0 0 0 7.173 0h.013ZM135.914 19.627a8.835 8.835 0 0 1-2.128-6.41 8.838 8.838 0 0 1 2.114-6.412 10.063 10.063 0 0 1 12.505 0 8.773 8.773 0 0 1 2.14 6.41 8.845 8.845 0 0 1-2.127 6.426 10.034 10.034 0 0 1-12.504 0v-.014Zm9.831-2.123a6.357 6.357 0 0 0 1.214-4.288 6.371 6.371 0 0 0-1.214-4.3 5.363 5.363 0 0 0-7.159 0 6.293 6.293 0 0 0-1.213 4.287 6.383 6.383 0 0 0 1.2 4.3 5.375 5.375 0 0 0 7.172 0ZM155.045 19.94a6.486 6.486 0 0 1-1.276-2.222 6.486 6.486 0 0 1-.319-2.542V4.9h3.368v9.827a5.934 5.934 0 0 0 .368 2.3 2.37 2.37 0 0 0 1.228 1.212 5.707 5.707 0 0 0 2.318.38H165v2.914h-5.195a6.532 6.532 0 0 1-4.76-1.593ZM82.786 29.482v-2.9h14.237v2.9h-5.455v13.733H88.16V29.482h-5.373ZM102.518 37.022v6.193h-3.409V26.582h8.618a5.639 5.639 0 0 1 4.091 1.293 5.121 5.121 0 0 1 1.364 3.907c0 2.722-1.15 4.396-3.45 5.022l4.323 6.411h-4.091l-4.009-6.193h-3.437Zm6.45-3.457a2.288 2.288 0 0 0 .614-1.756 2.274 2.274 0 0 0-.614-1.77 2.73 2.73 0 0 0-1.854-.557h-4.596v4.641h4.596a2.73 2.73 0 0 0 1.854-.558ZM119.468 39.595l-1.282 3.62h-3.641l6.423-16.633h4.023l6.409 16.633h-3.818l-1.364-3.62h-6.75Zm5.85-2.845-2.427-6.969-2.468 6.969h4.895ZM140.291 26.582a8.198 8.198 0 0 1 6.136 2.015 8.687 8.687 0 0 1 1.978 6.302 8.673 8.673 0 0 1-1.978 6.288 8.183 8.183 0 0 1-6.136 2.028h-7.118V26.582h7.118Zm2.386 13.19a3.136 3.136 0 0 0 1.637-1.702 8.069 8.069 0 0 0 .504-3.171 8.155 8.155 0 0 0-.504-3.185 3.136 3.136 0 0 0-1.637-1.702 7.335 7.335 0 0 0-3.082-.53h-3.013V40.37h3.013a7.335 7.335 0 0 0 3.082-.6ZM152.509 41.173a8.71 8.71 0 0 1-1.977-6.274 8.725 8.725 0 0 1 1.977-6.289 8.254 8.254 0 0 1 6.164-2.028h4.841v2.9h-4.173a8.084 8.084 0 0 0-2.727.394 3.243 3.243 0 0 0-1.623 1.225 5.434 5.434 0 0 0-.75 2.287h9.068v2.913h-9.068c.061.81.304 1.596.709 2.3a3.293 3.293 0 0 0 1.65 1.293 7.867 7.867 0 0 0 2.727.408h4.418v2.913h-5.086a8.264 8.264 0 0 1-6.15-2.042ZM73.636 18.634a2.116 2.116 0 0 0 1.528-.49 2.027 2.027 0 0 0 .504-1.511 2.04 2.04 0 0 0-.463-1.457 2.104 2.104 0 0 0-1.569-.544h-2.863c-3.273 0-4.91-1.637-4.91-4.914a4.932 4.932 0 0 1 1.214-3.634 5.062 5.062 0 0 1 3.696-1.198h7.813L75.736 7.8h-4.24a1.749 1.749 0 0 0-1.865 1.155 1.74 1.74 0 0 0-.085.778c-.04.536.136 1.064.49 1.47.405.354.936.53 1.473.49h2.837a5.16 5.16 0 0 1 3.736 1.252 4.938 4.938 0 0 1 1.268 3.675 4.946 4.946 0 0 1-1.268 3.689 5.146 5.146 0 0 1-3.71 1.238H66.3v-2.912h7.336Z" fill="#fff"/><path d="M70.091 40.302h10.514v2.913H66.532v-4.9a4.93 4.93 0 0 1 1.254-3.688 4.992 4.992 0 0 1 3.682-1.239h2.727v.544l4.31-2.422-4.35-2.505v.572H67.2l2.891-2.967h6a5.147 5.147 0 0 1 3.668 1.197 4.83 4.83 0 0 1 1.255 3.621 4.878 4.878 0 0 1-1.241 3.634 5.065 5.065 0 0 1-3.668 1.212H72.15a2.131 2.131 0 0 0-1.555.49 2.041 2.041 0 0 0-.504 1.551v1.987ZM49.01 9.909l-8.483 5.267 1.855.967L23.29 49h6.354l17.591-30.244 2.1 1.13-.327-9.977Z" fill="#89BF19"/><path d="M46.623 29.264 58.05 49H35.182l11.44-19.736ZM34.964 8.997 29.086-1.157 8.7 33.96h6.382L29.086 9.827l2.728 4.628-4.541 7.854h6.381l4.528-7.854-3.218-5.458Z" fill="#00B6FB"/><path d="M12.423 38.601 6.382 49H0l6.068-10.399h6.355ZM30.995 26.719 18.055 49H11.7l12.94-22.281h6.355Z" fill="#89BF19"/></g><defs><clipPath id="clip0_1_657"><path fill="#fff" d="M0 0h165v49H0z"/></clipPath></defs></svg>