<svg width="437" height="320" fill="none" xmlns="http://www.w3.org/2000/svg"><rect width="437" height="320" rx="45" fill="#101116"/><path d="M331 159.5a112.496 112.496 0 0 1-59.281 99.116 112.504 112.504 0 0 1-115.369-5.341L218.5 159.5H331Z" fill="#40F771"/><path d="M151.479 249.857a112.502 112.502 0 0 1-42.911-114.258L218.5 159.5l-67.021 90.357Z" fill="#7B43F1"/><path d="M110.46 128.137a112.515 112.515 0 0 1 14.521-31.17L218.5 159.5l-108.04-31.363Z" fill="#4C5EFB"/><path d="M128.875 91.502a112.502 112.502 0 0 1 114.85-41.637L218.5 159.5l-89.625-67.998Z" fill="#555D84"/><path d="M251.147 51.841a112.499 112.499 0 0 1 79.673 101.288L218.5 159.5l32.647-107.659Z" fill="#FAD169"/><circle cx="219" cy="160" r="95" fill="#101116"/><path d="m152.38 163.82-3.94 2.58v-1.64l3.96-2.74h1.72V175h-1.74v-11.18Zm6.662 8.86c0-.373.06-.72.18-1.04.133-.333.3-.613.5-.84.16-.187.4-.387.72-.6a8.17 8.17 0 0 1 .94-.56c.253-.133.586-.287 1-.46l2.16-.96c.853-.373 1.28-.953 1.28-1.74v-1.78c0-.613-.187-1.02-.56-1.22-.374-.213-1.027-.32-1.96-.32-.92 0-2.187.14-3.8.42v-1.4a22.59 22.59 0 0 1 4.18-.38c1.44 0 2.48.22 3.12.66.64.427.96 1.147.96 2.16v2.12c0 .48-.08.88-.24 1.2-.16.307-.42.587-.78.84-.347.24-.86.513-1.54.82l-3 1.38c-.88.4-1.32.987-1.32 1.76v.86h6.88v1.4h-8.72v-2.32Zm15.721 2.52c-1.08 0-2.353-.12-3.82-.36v-1.44c1.547.32 2.84.48 3.88.48.813 0 1.407-.113 1.78-.34.387-.24.58-.627.58-1.16v-2.58c0-.56-.24-.92-.72-1.08a2.942 2.942 0 0 0-.64-.12 5.403 5.403 0 0 0-.74-.04h-3.84v-6.54h7.48v1.36h-5.68v3.94h3c.533 0 1.007.067 1.42.2.413.12.78.333 1.1.64.333.333.5.767.5 1.3v2.96c0 .467-.087.88-.26 1.24-.16.347-.38.62-.66.82-.253.187-.58.34-.98.46-.387.12-.773.193-1.16.22-.48.027-.893.04-1.24.04Zm7.742-2.36h2.12l-1.88 4.4h-1.16l.92-4.4Zm8.977 2.36c-1.08 0-2.353-.12-3.82-.36v-1.44c1.547.32 2.84.48 3.88.48.813 0 1.407-.113 1.78-.34.387-.24.58-.627.58-1.16v-2.58c0-.56-.24-.92-.72-1.08a2.942 2.942 0 0 0-.64-.12 5.403 5.403 0 0 0-.74-.04h-3.84v-6.54h7.48v1.36h-5.68v3.94h3c.533 0 1.007.067 1.42.2.413.12.78.333 1.1.64.333.333.5.767.5 1.3v2.96c0 .467-.087.88-.26 1.24-.16.347-.38.62-.66.82-.253.187-.58.34-.98.46-.387.12-.773.193-1.16.22-.48.027-.893.04-1.24.04Zm11.821 0c-.586 0-1.06-.02-1.42-.06-.36-.04-.733-.12-1.12-.24-.413-.12-.74-.293-.98-.52-.24-.24-.44-.573-.6-1-.16-.427-.24-.927-.24-1.5v-6.56c0-.6.094-1.127.28-1.58.2-.453.454-.813.76-1.08.267-.227.627-.407 1.08-.54.454-.147.907-.24 1.36-.28.507-.027.967-.04 1.38-.04.814 0 1.907.06 3.28.18v1.36c-1.373-.173-2.553-.26-3.54-.26-.746 0-1.313.053-1.7.16-.386.107-.673.32-.86.64-.173.307-.26.773-.26 1.4v2.04h2.94c.667 0 1.167.013 1.5.04.334.027.687.08 1.06.16.374.08.647.213.82.4.187.187.347.453.48.8.12.333.18.753.18 1.26v1.9c0 1.44-.453 2.373-1.36 2.8-.44.2-.88.333-1.32.4-.44.08-1.013.12-1.72.12Zm.04-1.18c.707 0 1.234-.047 1.58-.14.36-.107.614-.3.76-.58.16-.293.24-.733.24-1.32v-1.94c0-.44-.066-.767-.2-.98-.133-.227-.38-.38-.74-.46-.36-.08-.913-.12-1.66-.12h-2.6v3.5c0 .587.08 1.027.24 1.32.16.28.42.473.78.58.36.093.894.14 1.6.14Zm11.342 1.18c-1.08 0-2.353-.12-3.82-.36v-1.44c1.547.32 2.84.48 3.88.48.813 0 1.407-.113 1.78-.34.387-.24.58-.627.58-1.16v-2.58c0-.56-.24-.92-.72-1.08a2.942 2.942 0 0 0-.64-.12 5.403 5.403 0 0 0-.74-.04h-3.84v-6.54h7.48v1.36h-5.68v3.94h3c.533 0 1.007.067 1.42.2.413.12.78.333 1.1.64.333.333.5.767.5 1.3v2.96c0 .467-.087.88-.26 1.24-.16.347-.38.62-.66.82-.253.187-.58.34-.98.46-.387.12-.773.193-1.16.22-.48.027-.893.04-1.24.04Zm7.442-2.36h2.32V175h-2.32v-2.16Zm9.497 2.36c-1.627 0-2.8-.193-3.52-.58-.72-.4-1.08-1.053-1.08-1.96v-2.42c0-.52.2-.953.6-1.3.413-.36.96-.62 1.64-.78v-.08c-.6-.133-1.054-.347-1.36-.64-.294-.293-.44-.7-.44-1.22v-2.02c0-.373.06-.693.18-.96s.32-.52.6-.76c.573-.453 1.7-.68 3.38-.68s2.806.227 3.38.68c.28.24.48.493.6.76s.18.587.18.96v2.02c0 .52-.147.927-.44 1.22-.294.293-.74.507-1.34.64v.08c.68.16 1.22.42 1.62.78.413.347.62.78.62 1.3v2.38c0 .933-.36 1.6-1.08 2-.707.387-1.887.58-3.54.58Zm0-7.48c.88 0 1.486-.093 1.82-.28.346-.187.52-.533.52-1.04v-2.1c0-.493-.18-.84-.54-1.04-.36-.2-.96-.3-1.8-.3-.84 0-1.44.1-1.8.3-.36.2-.54.547-.54 1.04v2.1c0 .507.166.853.5 1.04.346.187.96.28 1.84.28Zm0 6.32c.973 0 1.66-.1 2.06-.3.4-.2.6-.54.6-1.02v-2.42c0-.68-.287-1.107-.86-1.28-.28-.08-.54-.127-.78-.14a9.77 9.77 0 0 0-1.02-.04c-.44 0-.774.013-1 .04-.227.013-.487.06-.78.14-.587.173-.88.6-.88 1.28v2.42c0 .48.2.82.6 1.02.4.2 1.086.3 2.06.3Zm14.501-10.72h-7.44v-1.3h9.12v1.3l-4.96 11.68h-1.92l5.2-11.68Zm14.271 11.88a10.95 10.95 0 0 1-1.86-.14 6.604 6.604 0 0 1-1.54-.48 2.698 2.698 0 0 1-1.24-1.1c-.28-.493-.42-1.093-.42-1.8v-9.66h1.86v9.64c0 .813.274 1.393.82 1.74.547.333 1.354.5 2.42.5 1.067 0 1.86-.167 2.38-.5.534-.347.8-.927.8-1.74v-9.64h1.86v9.66c0 2.347-1.693 3.52-5.08 3.52Zm12.196 0c-1.107 0-2.427-.107-3.96-.32v-1.62c1.547.333 2.907.5 4.08.5.987 0 1.707-.107 2.16-.32.453-.227.68-.64.68-1.24v-1.68c0-.56-.16-.953-.48-1.18-.32-.227-.88-.34-1.68-.34h-1.52c-1.267 0-2.167-.253-2.7-.76-.533-.507-.8-1.293-.8-2.36v-1.04c0-.707.153-1.28.46-1.72.32-.44.847-.767 1.58-.98.747-.213 1.767-.32 3.06-.32.867 0 1.98.073 3.34.22v1.46c-1.52-.227-2.68-.34-3.48-.34-1.24 0-2.06.12-2.46.36-.413.253-.62.673-.62 1.26v1.48c0 .453.16.787.48 1 .333.2.9.3 1.7.3h1.56c.893 0 1.587.107 2.08.32.507.213.86.54 1.06.98.213.427.32 1.007.32 1.74v.94c0 .92-.173 1.647-.52 2.18-.333.533-.853.913-1.56 1.14-.707.227-1.633.34-2.78.34Zm7.647-13.18h5.16c3.64 0 5.46 1.24 5.46 3.72v5.74c0 2.347-1.814 3.52-5.44 3.52h-5.18v-12.98Zm5.04 11.66c2.48 0 3.72-.747 3.72-2.24v-5.72c0-.48-.1-.887-.3-1.22-.2-.333-.48-.58-.84-.74a4.613 4.613 0 0 0-1.12-.3 8.07 8.07 0 0 0-1.36-.1h-3.2v10.32h3.1Z" fill="#fff"/><path d="M188.928 145.028h-2.64v-.816h6.444v.816h-2.628V152h-1.176v-6.972Zm7.488 7.092c-.512 0-.896-.02-1.152-.06a2.55 2.55 0 0 1-.768-.228 1.124 1.124 0 0 1-.576-.576c-.12-.272-.18-.636-.18-1.092v-2.016c0-.36.044-.676.132-.948.088-.272.204-.484.348-.636.12-.136.3-.24.54-.312.248-.08.5-.132.756-.156.288-.016.588-.024.9-.024.416 0 .728.012.936.036.216.016.444.056.684.12.248.072.44.18.576.324.136.144.252.352.348.624.088.28.132.604.132.972v2.016c0 .68-.156 1.176-.468 1.488-.128.128-.312.228-.552.3-.24.072-.488.12-.744.144-.304.016-.608.024-.912.024Zm0-.708c.336 0 .58-.008.732-.024.152-.016.3-.06.444-.132a.548.548 0 0 0 .3-.312c.064-.152.096-.36.096-.624v-2.352c0-.36-.044-.62-.132-.78-.088-.168-.24-.276-.456-.324-.208-.056-.536-.084-.984-.084-.448 0-.78.028-.996.084a.631.631 0 0 0-.444.324c-.088.16-.132.42-.132.78v2.352c0 .264.028.472.084.624a.595.595 0 0 0 .312.312c.144.072.292.116.444.132.152.016.396.024.732.024Zm6.796.708c-.496 0-.884-.052-1.164-.156a1.124 1.124 0 0 1-.612-.552c-.12-.264-.18-.632-.18-1.104V146.9h-1.296v-.708h1.296v-1.8h1.092v1.8h2.076v.708h-2.076v3.468c0 .288.032.504.096.648a.636.636 0 0 0 .36.312c.176.056.428.084.756.084.104 0 .392-.032.864-.096v.708a7.811 7.811 0 0 1-1.212.096Zm4.18 0c-.552 0-.98-.052-1.284-.156a1.113 1.113 0 0 1-.648-.552c-.128-.264-.192-.644-.192-1.14 0-.44.06-.78.18-1.02.128-.248.34-.424.636-.528.304-.104.732-.156 1.284-.156h1.74v-.924c0-.216-.044-.38-.132-.492-.08-.12-.22-.204-.42-.252-.192-.048-.476-.072-.852-.072-.6 0-1.264.048-1.992.144v-.792a23.93 23.93 0 0 1 2.148-.108c.672 0 1.168.052 1.488.156.32.096.54.268.66.516s.18.632.18 1.152V152h-1.044v-.552c-.088.448-.672.672-1.752.672Zm.18-.708c.392 0 .724-.028.996-.084.36-.072.54-.24.54-.504v-1.584h-1.668c-.344 0-.592.028-.744.084a.434.434 0 0 0-.3.288c-.048.144-.072.376-.072.696 0 .288.028.512.084.672a.591.591 0 0 0 .3.336c.144.064.36.096.648.096h.216Zm4.489-7.812h1.08v8.4h-1.08v-8.4Zm7.507 8.52c-.552 0-.98-.052-1.284-.156a1.113 1.113 0 0 1-.648-.552c-.128-.264-.192-.644-.192-1.14 0-.44.06-.78.18-1.02.128-.248.34-.424.636-.528.304-.104.732-.156 1.284-.156h1.74v-.924c0-.216-.044-.38-.132-.492-.08-.12-.22-.204-.42-.252-.192-.048-.476-.072-.852-.072-.6 0-1.264.048-1.992.144v-.792a23.93 23.93 0 0 1 2.148-.108c.672 0 1.168.052 1.488.156.32.096.54.268.66.516s.18.632.18 1.152V152h-1.044v-.552c-.088.448-.672.672-1.752.672Zm.18-.708c.392 0 .724-.028.996-.084.36-.072.54-.24.54-.504v-1.584h-1.668c-.344 0-.592.028-.744.084a.434.434 0 0 0-.3.288c-.048.144-.072.376-.072.696 0 .288.028.512.084.672a.591.591 0 0 0 .3.336c.144.064.36.096.648.096h.216Zm6.265.708c-.616 0-1.28-.048-1.992-.144v-.828c.936.152 1.608.228 2.016.228.512 0 .88-.048 1.104-.144.224-.104.336-.292.336-.564v-.588c0-.248-.084-.424-.252-.528-.168-.104-.44-.156-.816-.156h-.66c-.6 0-1.06-.124-1.38-.372-.312-.248-.468-.596-.468-1.044v-.54c0-.912.864-1.368 2.592-1.368.128 0 .716.032 1.764.096v.78a11.967 11.967 0 0 0-1.812-.168c-.568 0-.956.056-1.164.168-.208.112-.312.3-.312.564v.492c0 .392.356.588 1.068.588h.672c1.224 0 1.836.456 1.836 1.368v.504c0 .6-.208 1.028-.624 1.284-.416.248-1.052.372-1.908.372Zm5.801 0c-.616 0-1.28-.048-1.992-.144v-.828c.936.152 1.608.228 2.016.228.512 0 .88-.048 1.104-.144.224-.104.336-.292.336-.564v-.588c0-.248-.084-.424-.252-.528-.168-.104-.44-.156-.816-.156h-.66c-.6 0-1.06-.124-1.38-.372-.312-.248-.468-.596-.468-1.044v-.54c0-.912.864-1.368 2.592-1.368.128 0 .716.032 1.764.096v.78a11.967 11.967 0 0 0-1.812-.168c-.568 0-.956.056-1.164.168-.208.112-.312.3-.312.564v.492c0 .392.356.588 1.068.588h.672c1.224 0 1.836.456 1.836 1.368v.504c0 .6-.208 1.028-.624 1.284-.416.248-1.052.372-1.908.372Zm6.472 0c-1.776 0-2.664-.592-2.664-1.776v-2.292c0-.704.2-1.208.6-1.512.408-.312 1.064-.468 1.968-.468.856 0 1.472.148 1.848.444.384.296.576.808.576 1.536v1.284h-3.9v.876c0 .4.14.688.42.864.28.176.712.264 1.296.264.552 0 1.204-.096 1.956-.288v.828c-.736.16-1.436.24-2.1.24Zm1.248-3.492v-.912c0-.352-.108-.592-.324-.72-.208-.136-.568-.204-1.08-.204-.496 0-.856.068-1.08.204-.224.128-.336.368-.336.72v.912h2.82Zm5.162 3.492c-.496 0-.884-.052-1.164-.156a1.124 1.124 0 0 1-.612-.552c-.12-.264-.18-.632-.18-1.104V146.9h-1.296v-.708h1.296v-1.8h1.092v1.8h2.076v.708h-2.076v3.468c0 .288.032.504.096.648a.636.636 0 0 0 .36.312c.176.056.428.084.756.084.104 0 .392-.032.864-.096v.708a7.811 7.811 0 0 1-1.212.096Zm4.168 0c-.616 0-1.28-.048-1.992-.144v-.828c.936.152 1.608.228 2.016.228.512 0 .88-.048 1.104-.144.224-.104.336-.292.336-.564v-.588c0-.248-.084-.424-.252-.528-.168-.104-.44-.156-.816-.156h-.66c-.6 0-1.06-.124-1.38-.372-.312-.248-.468-.596-.468-1.044v-.54c0-.912.864-1.368 2.592-1.368.128 0 .716.032 1.764.096v.78a11.967 11.967 0 0 0-1.812-.168c-.568 0-.956.056-1.164.168-.208.112-.312.3-.312.564v.492c0 .392.356.588 1.068.588h.672c1.224 0 1.836.456 1.836 1.368v.504c0 .6-.208 1.028-.624 1.284-.416.248-1.052.372-1.908.372Z" fill="#79809E"/></svg>