<svg width="437" height="320" fill="none" xmlns="http://www.w3.org/2000/svg"><rect width="437" height="320" rx="45" fill="#101116"/><path stroke="#1D1F29" stroke-dasharray="10 10" d="M42 53.5h350M42 106.5h350M42 159.5h350M42 212.5h350M42 265.5h350"/><path d="m53 214.5 7.068 9.639c1.528 2.083 4.8 1.39 5.35-1.134l7.969-36.487c.075-.343.209-.669.396-.966l6.697-10.572c1.074-1.697 3.608-1.507 4.417.332 1.022 2.322 4.45 1.835 4.785-.679l2.755-20.663a3.01 3.01 0 0 1 .268-.898l1.992-4.166c1.177-2.462 4.763-2.201 5.572.405L107 171l7.259 42.463c.561 3.283 5.253 3.344 5.9.077l6.242-31.54c.066-.331.186-.648.357-.939l3.633-6.176a2.13 2.13 0 0 1 2.964-.726 2.13 2.13 0 0 0 3.1-1.002l1.837-4.51c1.005-2.466 4.486-2.498 5.536-.049L148.5 179.5l6.809 13.619c.127.253.217.522.268.8l4.899 26.724a3 3 0 0 0 3.396 2.426l6.103-.915a3.002 3.002 0 0 0 1.736-.907l6.088-6.446a3 3 0 0 1 3.791-.471l2.204 1.403a3 3 0 0 1 1.37 2.187l3.718 32.228c.203 1.753 2.507 2.261 3.427.755.907-1.484 3.175-1.017 3.421.705l2.665 18.66c.069.481.254.938.538 1.332l2.187 3.028c1.511 2.091 4.782 1.427 5.357-1.088l1.99-8.708a3 3 0 0 1 2.925-2.332h.687a3 3 0 0 0 2.933-2.366l6.976-32.268a3 3 0 0 1 2.933-2.366h1.04a2.999 2.999 0 0 0 2.789-1.896l8.549-21.595a3 3 0 0 1 .569-.914l.712-.783c1.641-1.805 4.636-1 5.152 1.384l2.388 11.047a3 3 0 0 0 2.108 2.251l2.546.727a2.999 2.999 0 0 0 3.657-1.899l2.136-6.139a1.668 1.668 0 0 1 2.821-.56c.893 1.005 2.547.594 2.865-.712l9.048-37.095c.13-.534.405-1.022.793-1.41l3.259-3.259a2.786 2.786 0 0 1 4.422.649 2.784 2.784 0 0 0 4.367.701l4.05-3.837a3 3 0 0 1 4.686.721l4.104 7.387c1.362 2.451 5.044 1.86 5.569-.894l7.54-39.496c.509-2.662 4.006-3.339 5.471-1.06l3.716 5.782a3.002 3.002 0 0 0 3.386 1.251l6.206-1.862a2.086 2.086 0 0 1 2.437 1.01c.921 1.71 3.473 1.345 3.879-.554l7.326-34.317c.459-2.152 3.002-3.094 4.752-1.76l3.046 2.321c1.732 1.319 4.248.413 4.741-1.707l10.928-46.993c.725-3.117 5.174-3.085 5.854.042l4.516 20.773c.099.457.305.886.599 1.25L385 84" stroke="#4BFF86" stroke-width="2"/><path d="m60.068 224.139-1.649-2.249c-1.714-2.338-5.419-1.125-5.419 1.774V277a3 3 0 0 0 3 3h326a3 3 0 0 0 3-3V85.062c0-.687-.236-1.353-.668-1.888l-7.384-9.12a3.002 3.002 0 0 1-.599-1.25l-4.516-20.773c-.68-3.127-5.129-3.159-5.854-.042l-10.928 46.993c-.493 2.12-3.009 3.026-4.741 1.707l-3.046-2.321c-1.75-1.334-4.293-.392-4.752 1.76l-7.326 34.317c-.406 1.899-2.958 2.264-3.879.554a2.086 2.086 0 0 0-2.437-1.01l-6.206 1.862a3.002 3.002 0 0 1-3.386-1.251l-3.716-5.782c-1.465-2.279-4.962-1.602-5.471 1.06l-7.54 39.496c-.525 2.754-4.207 3.345-5.569.894l-4.104-7.387a3 3 0 0 0-4.686-.721l-4.05 3.837a2.784 2.784 0 0 1-4.367-.701 2.786 2.786 0 0 0-4.422-.649l-3.259 3.259a2.998 2.998 0 0 0-.793 1.41l-9.048 37.095c-.318 1.306-1.972 1.717-2.865.712a1.668 1.668 0 0 0-2.821.56l-2.136 6.139a2.999 2.999 0 0 1-3.657 1.899l-2.546-.727a3 3 0 0 1-2.108-2.251l-2.388-11.047c-.516-2.384-3.511-3.189-5.152-1.384l-.712.783a3 3 0 0 0-.569.914l-8.549 21.595a2.999 2.999 0 0 1-2.789 1.896h-1.04a3 3 0 0 0-2.933 2.366l-6.976 32.268a3 3 0 0 1-2.933 2.366h-.687a3 3 0 0 0-2.925 2.332l-1.99 8.708c-.575 2.515-3.846 3.179-5.357 1.088l-2.187-3.028a3.01 3.01 0 0 1-.538-1.332l-2.665-18.66c-.246-1.722-2.514-2.189-3.421-.705-.92 1.506-3.224.998-3.427-.755l-3.718-32.228a3 3 0 0 0-1.37-2.187l-2.204-1.403a3 3 0 0 0-3.791.471l-6.088 6.446a3.002 3.002 0 0 1-1.736.907l-6.103.915a3 3 0 0 1-3.396-2.426l-4.899-26.724a2.98 2.98 0 0 0-.268-.8L148.5 179.5l-4.672-10.902c-1.05-2.449-4.531-2.417-5.536.049l-1.837 4.51a2.13 2.13 0 0 1-3.1 1.002 2.13 2.13 0 0 0-2.964.726l-3.633 6.176a3.015 3.015 0 0 0-.357.939l-6.242 31.54c-.647 3.267-5.339 3.206-5.9-.077L107 171l-6.731-21.689c-.809-2.606-4.395-2.867-5.572-.405l-1.992 4.166a3.01 3.01 0 0 0-.268.898l-2.755 20.663c-.335 2.514-3.763 3.001-4.785.679-.809-1.839-3.343-2.029-4.418-.332l-6.696 10.572a3.006 3.006 0 0 0-.396.966l-7.969 36.487c-.55 2.524-3.822 3.217-5.35 1.134Z" fill="url('#paint0_linear_1_775')" fill-opacity=".2"/><rect x="259" y="61" width="107" height="50" rx="8" fill="#25293D"/><path d="m269.466 75.174-2.758 1.806v-1.148l2.772-1.918h1.204V83h-1.218v-7.826Zm7.701 7.966c-1.139 0-1.96-.135-2.464-.406-.504-.28-.756-.737-.756-1.372v-1.694c0-.364.14-.667.42-.91.289-.252.672-.434 1.148-.546v-.056c-.42-.093-.737-.243-.952-.448-.205-.205-.308-.49-.308-.854V75.44c0-.261.042-.485.126-.672.084-.187.224-.364.42-.532.401-.317 1.19-.476 2.366-.476 1.176 0 1.965.159 2.366.476.196.168.336.345.42.532.084.187.126.41.126.672v1.414c0 .364-.103.649-.308.854-.205.205-.518.355-.938.448v.056c.476.112.854.294 1.134.546.289.243.434.546.434.91v1.666c0 .653-.252 1.12-.756 1.4-.495.27-1.321.406-2.478.406Zm0-5.236c.616 0 1.041-.065 1.274-.196.243-.13.364-.373.364-.728v-1.47c0-.345-.126-.588-.378-.728s-.672-.21-1.26-.21-1.008.07-1.26.21c-.252.14-.378.383-.378.728v1.47c0 .355.117.597.35.728.243.13.672.196 1.288.196Zm0 4.424c.681 0 1.162-.07 1.442-.21.28-.14.42-.378.42-.714V79.71c0-.476-.201-.775-.602-.896a2.503 2.503 0 0 0-.546-.098 6.896 6.896 0 0 0-.714-.028c-.308 0-.541.01-.7.028-.159.01-.341.042-.546.098-.411.121-.616.42-.616.896v1.694c0 .336.14.574.42.714.28.14.761.21 1.442.21Zm5.265-.84h1.484l-1.316 3.08h-.812l.644-3.08Zm6.858-6.314-2.758 1.806v-1.148l2.772-1.918h1.204V83h-1.218v-7.826Zm4.663 6.202c0-.261.042-.504.126-.728.094-.233.21-.43.35-.588.112-.13.28-.27.504-.42.234-.159.453-.29.658-.392.178-.093.411-.2.7-.322l1.512-.672c.598-.261.896-.667.896-1.218V75.79c0-.43-.13-.714-.392-.854-.261-.15-.718-.224-1.372-.224-.644 0-1.53.098-2.66.294v-.98a15.802 15.802 0 0 1 2.926-.266c1.008 0 1.736.154 2.184.462.448.299.672.803.672 1.512v1.484c0 .336-.056.616-.168.84-.112.215-.294.41-.546.588-.242.168-.602.36-1.078.574l-2.1.966c-.616.28-.924.69-.924 1.232v.602h4.816V83h-6.104v-1.624Zm11.159 1.764c-.41 0-.742-.014-.994-.042a4.227 4.227 0 0 1-.784-.168c-.289-.084-.518-.205-.686-.364-.168-.168-.308-.401-.42-.7a2.986 2.986 0 0 1-.168-1.05v-4.592c0-.42.066-.789.196-1.106.14-.317.318-.57.532-.756.187-.159.439-.285.756-.378.318-.103.635-.168.952-.196.355-.019.677-.028.966-.028.57 0 1.335.042 2.296.126v.952a20.211 20.211 0 0 0-2.478-.182c-.522 0-.919.037-1.19.112a.963.963 0 0 0-.602.448c-.121.215-.182.541-.182.98v1.428h2.058c.467 0 .817.01 1.05.028.234.019.481.056.742.112.262.056.453.15.574.28.131.13.243.317.336.56.084.233.126.527.126.882v1.33c0 1.008-.317 1.661-.952 1.96-.308.14-.616.233-.924.28a6.972 6.972 0 0 1-1.204.084Zm.028-.826c.495 0 .864-.033 1.106-.098.252-.075.43-.21.532-.406.112-.205.168-.513.168-.924v-1.358c0-.308-.046-.537-.14-.686-.093-.159-.266-.266-.518-.322-.252-.056-.639-.084-1.162-.084h-1.82v2.45c0 .41.056.719.168.924.112.196.294.331.546.406.252.065.626.098 1.12.098Zm5.028-.826h1.624V83h-1.624v-1.512Zm7.068-6.314-2.758 1.806v-1.148l2.772-1.918h1.204V83h-1.218v-7.826Zm8.905 5.838h-4.522v-1.106l4.116-5.992h1.568v6.132h.98v.966h-.98V83h-1.162v-1.988Zm0-.966V75.02l-3.402 5.026h3.402Zm10.815 3.094c-.494 0-.928-.033-1.302-.098a4.644 4.644 0 0 1-1.078-.336 1.889 1.889 0 0 1-.868-.77c-.196-.345-.294-.765-.294-1.26v-6.762h1.302v6.748c0 .57.192.975.574 1.218.383.233.948.35 1.694.35.747 0 1.302-.117 1.666-.35.374-.243.56-.649.56-1.218v-6.748h1.302v6.762c0 1.643-1.185 2.464-3.556 2.464Zm8.537 0c-.774 0-1.698-.075-2.772-.224v-1.134c1.083.233 2.035.35 2.856.35.691 0 1.195-.075 1.512-.224.318-.159.476-.448.476-.868v-1.176c0-.392-.112-.667-.336-.826-.224-.159-.616-.238-1.176-.238h-1.064c-.886 0-1.516-.177-1.89-.532-.373-.355-.56-.905-.56-1.652v-.728c0-.495.108-.896.322-1.204.224-.308.593-.537 1.106-.686.523-.15 1.237-.224 2.142-.224.607 0 1.386.051 2.338.154v1.022c-1.064-.159-1.876-.238-2.436-.238-.868 0-1.442.084-1.722.252-.289.177-.434.471-.434.882v1.036c0 .317.112.55.336.7.234.14.63.21 1.19.21h1.092c.626 0 1.111.075 1.456.224.355.15.602.378.742.686.15.299.224.705.224 1.218v.658c0 .644-.121 1.153-.364 1.526-.233.373-.597.64-1.092.798-.494.159-1.143.238-1.946.238Zm5.353-9.226h3.612c2.548 0 3.822.868 3.822 2.604v4.018c0 1.643-1.269 2.464-3.808 2.464h-3.626v-9.086Zm3.528 8.162c1.736 0 2.604-.523 2.604-1.568v-4.004c0-.336-.07-.62-.21-.854a1.271 1.271 0 0 0-.588-.518 3.238 3.238 0 0 0-.784-.21 5.67 5.67 0 0 0-.952-.07h-2.24v7.224h2.17Z" fill="#fff"/><path d="M293.192 98.12c-.672 0-1.428-.076-2.268-.228v-.864c.952.2 1.748.3 2.388.3 1.064 0 1.596-.3 1.596-.9v-1.332c0-.328-.176-.544-.528-.648a2.664 2.664 0 0 0-.456-.072 4.233 4.233 0 0 0-.504-.024h-1.5v-.744h1.296c.208 0 .376-.004.504-.012a3 3 0 0 0 .444-.096.732.732 0 0 0 .408-.228.64.64 0 0 0 .144-.432v-1.392c0-.408-.48-.612-1.44-.612-.64 0-1.372.064-2.196.192V90.2a21.01 21.01 0 0 1 2.184-.108c.888 0 1.532.1 1.932.3.408.192.612.524.612.996v1.5c0 .248-.1.456-.3.624-.2.16-.456.264-.768.312v.048c.192.032.348.068.468.108.128.032.264.084.408.156.28.144.42.396.42.756v1.56c0 .272-.06.516-.18.732-.12.216-.272.384-.456.504-.16.112-.372.204-.636.276a5.48 5.48 0 0 1-.78.132c-.304.016-.568.024-.792.024Zm4.609-5.928h1.392v1.296h-1.392v-1.296Zm0 4.512h1.392V98h-1.392v-1.296Zm5.422 1.416c-.672 0-1.428-.076-2.268-.228v-.864c.952.2 1.748.3 2.388.3 1.064 0 1.596-.3 1.596-.9v-1.332c0-.328-.176-.544-.528-.648a2.664 2.664 0 0 0-.456-.072 4.233 4.233 0 0 0-.504-.024h-1.5v-.744h1.296c.208 0 .376-.004.504-.012a3 3 0 0 0 .444-.096.732.732 0 0 0 .408-.228.64.64 0 0 0 .144-.432v-1.392c0-.408-.48-.612-1.44-.612-.64 0-1.372.064-2.196.192V90.2a21.01 21.01 0 0 1 2.184-.108c.888 0 1.532.1 1.932.3.408.192.612.524.612.996v1.5c0 .248-.1.456-.3.624-.2.16-.456.264-.768.312v.048c.192.032.348.068.468.108.128.032.264.084.408.156.28.144.42.396.42.756v1.56c0 .272-.06.516-.18.732-.12.216-.272.384-.456.504-.16.112-.372.204-.636.276a5.48 5.48 0 0 1-.78.132c-.304.016-.568.024-.792.024Zm6.961 0c-.672 0-1.428-.076-2.268-.228v-.864c.952.2 1.748.3 2.388.3 1.064 0 1.596-.3 1.596-.9v-1.332c0-.328-.176-.544-.528-.648a2.664 2.664 0 0 0-.456-.072 4.233 4.233 0 0 0-.504-.024h-1.5v-.744h1.296c.208 0 .376-.004.504-.012a3 3 0 0 0 .444-.096.732.732 0 0 0 .408-.228.64.64 0 0 0 .144-.432v-1.392c0-.408-.48-.612-1.44-.612-.64 0-1.372.064-2.196.192V90.2a21.01 21.01 0 0 1 2.184-.108c.888 0 1.532.1 1.932.3.408.192.612.524.612.996v1.5c0 .248-.1.456-.3.624-.2.16-.456.264-.768.312v.048c.192.032.348.068.468.108.128.032.264.084.408.156.28.144.42.396.42.756v1.56c0 .272-.06.516-.18.732-.12.216-.272.384-.456.504-.16.112-.372.204-.636.276a5.48 5.48 0 0 1-.78.132c-.304.016-.568.024-.792.024Zm9.811-7.908h1.344L324.363 98h-1.212l-.888-2.364h-3.336L318.051 98h-1.152l3.096-7.788Zm1.98 4.62-1.32-3.516h-.108l-1.32 3.516h2.748Zm3.58-4.62h1.74l2.496 6.48.036.012 2.364-6.492h1.68V98h-1.02v-6.588h-.06L330.283 98h-1.044l-2.58-6.588h-.06V98h-1.044v-7.788Z" fill="#79809E"/><path d="m312.5 119-4.763-8.25h9.526L312.5 119Z" fill="#25293D"/><g filter="url('#filter0_d_1_775')"><circle cx="312.5" cy="128.5" r="5.5" fill="#4BFF86"/></g><defs><linearGradient id="paint0_linear_1_775" x1="219" y1="39" x2="219" y2="280" gradientUnits="userSpaceOnUse"><stop stop-color="#4BFF86"/><stop offset="1" stop-color="#4BFF86" stop-opacity="0"/></linearGradient><filter id="filter0_d_1_775" x="298" y="114" width="29" height="29" filterUnits="userSpaceOnUse" color-interpolation-filters="sRGB"><feFlood flood-opacity="0" result="BackgroundImageFix"/><feColorMatrix in="SourceAlpha" values="0 0 0 0 0 0 0 0 0 0 0 0 0 0 0 0 0 0 127 0" result="hardAlpha"/><feOffset/><feGaussianBlur stdDeviation="4.5"/><feComposite in2="hardAlpha" operator="out"/><feColorMatrix values="0 0 0 0 0.294118 0 0 0 0 1 0 0 0 0 0.52549 0 0 0 0.5 0"/><feBlend in2="BackgroundImageFix" result="effect1_dropShadow_1_775"/><feBlend in="SourceGraphic" in2="effect1_dropShadow_1_775" result="shape"/></filter></defs></svg>