<svg width="84" height="84" fill="none" xmlns="http://www.w3.org/2000/svg"><path fill-rule="evenodd" clip-rule="evenodd" d="M38.867.333A41.792 41.792 0 0 0 .333 38.867H12.75a3.134 3.134 0 0 1 0 6.267H.333a41.792 41.792 0 0 0 38.534 38.533V71.25a3.133 3.133 0 1 1 6.266 0v12.417a41.791 41.791 0 0 0 38.534-38.534H71.25a3.134 3.134 0 0 1 0-6.266h12.417A41.792 41.792 0 0 0 45.133.333V12.75a3.133 3.133 0 1 1-6.266 0V.333ZM30.508 42a3.135 3.135 0 0 1 3.134-3.133h5.225v-5.225a3.133 3.133 0 1 1 6.266 0v5.225h5.225a3.133 3.133 0 0 1 0 6.267h-5.225v5.224a3.133 3.133 0 1 1-6.266 0v-5.224h-5.225A3.133 3.133 0 0 1 30.508 42Z" fill="#89BF19"/></svg>