<svg width="84" height="76" fill="none" xmlns="http://www.w3.org/2000/svg"><path d="M17 58.833h20.833V50.5H17v8.333Zm41.667 0H67V50.5h-8.333v8.333ZM17 42.167h20.833v-8.334H17v8.334Zm41.667 0H67v-25h-8.333v25ZM17 25.5h20.833v-8.333H17V25.5Zm-8.333 50c-2.292 0-4.255-.817-5.888-2.45C1.146 71.417.33 69.456.333 67.167V8.833c0-2.291.817-4.254 2.45-5.887C4.417 1.313 6.378.497 8.667.5h66.666c2.292 0 4.254.817 5.888 2.45 1.633 1.633 2.448 3.594 2.446 5.883v58.334c0 2.291-.817 4.254-2.45 5.887-1.634 1.633-3.595 2.449-5.884 2.446H8.667Z" fill="#89BF19"/></svg>