<svg width="92" height="76" fill="none" xmlns="http://www.w3.org/2000/svg"><path d="m60.375 50.708 4.583-4.375-8.75-8.75a14.125 14.125 0 0 0 1.721-3.75c.383-1.32.574-2.708.571-4.166 0-4.098-1.442-7.553-4.325-10.367-2.883-2.814-6.303-4.22-10.258-4.217-3.959 0-7.38 1.406-10.263 4.217s-4.324 6.267-4.32 10.367c0 4.097 1.441 7.552 4.324 10.366 2.884 2.814 6.303 4.22 10.259 4.217 1.458 0 2.83-.192 4.116-.575a16.141 16.141 0 0 0 3.8-1.717l8.542 8.75ZM43.917 38c-2.292 0-4.255-.817-5.888-2.45-1.633-1.633-2.449-3.594-2.446-5.883 0-2.292.817-4.255 2.45-5.888 1.634-1.633 3.595-2.448 5.884-2.446 2.222 0 4.166.817 5.833 2.45 1.667 1.634 2.5 3.595 2.5 5.884 0 2.291-.817 4.254-2.45 5.887-1.633 1.633-3.594 2.449-5.883 2.446ZM4.333 75.5c-1.18 0-2.17-.4-2.97-1.2-.8-.8-1.2-1.789-1.196-2.967 0-1.18.4-2.17 1.2-2.97.8-.8 1.789-1.2 2.966-1.196h83.334c1.18 0 2.17.4 2.97 1.2.8.8 1.2 1.789 1.196 2.966 0 1.18-.4 2.171-1.2 2.971-.8.8-1.789 1.199-2.966 1.196H4.333ZM12.667 63c-2.292 0-4.255-.817-5.888-2.45-1.633-1.633-2.448-3.594-2.446-5.883V8.833c0-2.291.817-4.254 2.45-5.887C8.417 1.313 10.378.497 12.667.5h66.666c2.292 0 4.255.817 5.888 2.45 1.633 1.633 2.448 3.594 2.446 5.883v45.834c0 2.291-.817 4.254-2.45 5.887-1.634 1.633-3.595 2.449-5.884 2.446H12.667Z" fill="#89BF19"/></svg>