<svg width="146" height="192" fill="none" xmlns="http://www.w3.org/2000/svg"><g clip-path="url('#clip0_167_4')"><path d="m28.472 101.418-14.642 5.255a3.89 3.89 0 0 0-2.347 4.974l9.634 26.844a3.888 3.888 0 0 0 4.975 2.346l14.642-5.254a3.892 3.892 0 0 0 2.346-4.975l-9.634-26.843a3.889 3.889 0 0 0-4.974-2.347Zm-13.766 7.695 14.642-5.255a1.3 1.3 0 0 1 1.658.783l.438 1.22-17.082 6.131-.438-1.221a1.297 1.297 0 0 1 .782-1.658Zm25.152 24.029-14.642 5.255a1.296 1.296 0 0 1-1.658-.782l-.438-1.22 17.082-6.131.438 1.22a1.296 1.296 0 0 1-.782 1.658Z" fill="#89BF19"/></g><g clip-path="url('#clip1_167_4')"><path d="m125.876 120.668-36.15-10.929a7.081 7.081 0 0 0-8.827 4.729l-13.661 45.187a7.081 7.081 0 0 0 4.729 8.828l36.15 10.929a7.083 7.083 0 0 0 8.827-4.729l13.661-45.188a7.08 7.08 0 0 0-4.729-8.827Zm-37.516-6.41 36.15 10.929a2.36 2.36 0 0 1 1.576 2.942l-.683 2.26-40.669-12.295.684-2.26a2.358 2.358 0 0 1 2.942-1.576Zm21.123 60.635-36.15-10.929a2.36 2.36 0 0 1-1.576-2.942l.682-2.26 40.669 12.295-.683 2.26a2.36 2.36 0 0 1-2.942 1.576Z" fill="#89BF19"/></g><g clip-path="url('#clip2_167_4')"><path d="M39.529 88.888c-1.145.1-2.138-.204-2.981-.911-.843-.707-1.314-1.632-1.41-2.773-.101-1.144.203-2.138.91-2.981.707-.843 1.632-1.314 2.773-1.41l4.038-.354-4.597-52.49c-.194-2.221.43-4.193 1.875-5.914 1.444-1.721 3.275-2.678 5.493-2.87l64.604-5.657c2.22-.195 4.192.43 5.913 1.874 1.721 1.445 2.678 3.276 2.869 5.494l4.597 52.49 4.038-.353c1.144-.1 2.138.203 2.981.91.843.708 1.313 1.632 1.41 2.774.101 1.144-.203 2.138-.91 2.98-.708.844-1.632 1.314-2.774 1.411l-88.83 7.78Zm37.65-11.435 12.114-1.06c.538-.048.991-.291 1.36-.73.368-.44.529-.928.482-1.466-.047-.539-.29-.992-.73-1.36-.439-.37-.928-.53-1.466-.483l-12.113 1.061c-.538.047-.992.29-1.36.73-.369.439-.53.928-.482 1.466.047.538.29.992.73 1.36.438.368.927.53 1.466.482Z" fill="#89BF19"/></g><defs><clipPath id="clip0_167_4"><path fill="#fff" transform="rotate(-19.743 312.454 52.143)" d="M0 0h41.483v41.483H0z"/></clipPath><clipPath id="clip1_167_4"><path fill="#fff" transform="rotate(16.821 -292.85 297.978)" d="M0 0h75.532v75.532H0z"/></clipPath><clipPath id="clip2_167_4"><path fill="#fff" transform="rotate(-5.005 111.302 -320.878)" d="M0 0h97.276v97.276H0z"/></clipPath></defs></svg>