<svg width="84" height="84" fill="none" xmlns="http://www.w3.org/2000/svg"><path d="M8.667 37.834a4.166 4.166 0 0 1 .487 8.304l-.487.029H4.5a4.166 4.166 0 0 1-.488-8.304l.488-.03h4.167ZM42 .334a4.167 4.167 0 0 1 4.137 3.679l.03.487v4.167a4.166 4.166 0 0 1-8.305.487l-.029-.487V4.5A4.167 4.167 0 0 1 42 .333Zm37.5 37.5a4.166 4.166 0 0 1 .487 8.304l-.487.029h-4.167a4.166 4.166 0 0 1-.487-8.304l.487-.03H79.5ZM12.387 12.387a4.167 4.167 0 0 1 5.5-.346l.392.346 2.917 2.916a4.167 4.167 0 0 1-5.5 6.238l-.392-.346-2.917-2.917a4.167 4.167 0 0 1 0-5.891Zm53.334 0a4.167 4.167 0 0 1 6.237 5.5l-.346.391-2.916 2.917a4.166 4.166 0 0 1-6.238-5.5l.346-.392 2.917-2.916ZM50.333 67a4.166 4.166 0 0 1 4.167 4.167 12.5 12.5 0 1 1-25 0 4.167 4.167 0 0 1 3.68-4.138l.487-.029h16.666ZM42 17a25 25 0 0 1 15 45 4.167 4.167 0 0 1-1.963.8l-.537.034h-25A4.167 4.167 0 0 1 27 62a25 25 0 0 1 15-45Z" fill="#89BF19"/></svg>