<svg width="60" height="84" fill="none" xmlns="http://www.w3.org/2000/svg"><path d="M5 71.167h4.167v12.5H17.5v-12.5h4.167A4.166 4.166 0 0 0 25.833 67V17a4.167 4.167 0 0 0-4.166-4.166H17.5V.334H9.167v12.5H5A4.167 4.167 0 0 0 .833 17v50A4.167 4.167 0 0 0 5 71.167Zm4.167-50H17.5v41.666H9.167V21.168Zm29.166 41.666H42.5v12.5h8.333v-12.5H55a4.167 4.167 0 0 0 4.167-4.166V25.333A4.167 4.167 0 0 0 55 21.168h-4.167v-12.5H42.5v12.5h-4.167a4.167 4.167 0 0 0-4.166 4.166v33.334a4.167 4.167 0 0 0 4.166 4.166ZM42.5 29.5h8.333v25H42.5v-25Z" fill="#89BF19"/></svg>