<svg width="84" height="84" fill="none" xmlns="http://www.w3.org/2000/svg"><path d="M79.5 37.729V25.333A8.334 8.334 0 0 0 71.167 17h-25v-5.467c1.27-1.141 2.083-2.783 2.083-4.625a6.25 6.25 0 0 0-12.5 0c0 1.842.812 3.484 2.083 4.625V17h-25A8.333 8.333 0 0 0 4.5 25.333v12.492l-.3.02A4.163 4.163 0 0 0 .333 42v8.333A4.167 4.167 0 0 0 4.5 54.5v20.833a8.333 8.333 0 0 0 8.333 8.334h58.334a8.333 8.333 0 0 0 8.333-8.334V54.5a4.167 4.167 0 0 0 4.167-4.167v-8.075a4.183 4.183 0 0 0-.3-1.896c-.842-2.033-2.646-2.52-3.867-2.633Zm-58.333 4.27c0-4.6 2.8-8.333 6.25-8.333s6.25 3.734 6.25 8.334-2.8 8.333-6.25 8.333-6.25-3.733-6.25-8.333Zm37.491 25c-4.17-.012-33.325 0-33.325 0v-8.332s29.171-.009 33.342 0L58.658 67Zm-2.075-16.666c-3.45 0-6.25-3.733-6.25-8.333s2.8-8.334 6.25-8.334 6.25 3.734 6.25 8.334-2.8 8.333-6.25 8.333Z" fill="#89BF19"/></svg>