<svg width="124" height="168" fill="none" xmlns="http://www.w3.org/2000/svg"><path d="M103.803.968c-.423.163-.847.587-.943.978-.164.52-.359.619-1.172.423-.651-.13-.879-.097-.748.163.129.196 0 .456-.26.554-.52.196-.391.782.163.782.196 0 .228-.129.131-.326-.098-.163 0-.228.26-.13.293.096.424.422.327.781-.163.587-.228.587-.847.163-1.042-.715-1.629-.618-1.367.196.131.39.097.65-.032.552-.163-.064-.685-.326-1.139-.552-.716-.359-1.01-.327-1.889.097-.552.292-1.01.748-1.01 1.01 0 .261-.292.487-.65.487-.75 0-2.28.88-2.28 1.303 0 .163.228.326.488.39.455.098.455.164 0 .815-.293.423-.847.748-1.238.748-.782 0-3.028.716-3.386 1.074-.391.391 1.139 1.53 2.052 1.53.943 0 .814.456-.131.488-2.214.163-2.214.163-1.629.619.423.326.488.488.195.782-.487.488-.552.456 1.986.554 2.083.097 3.614.619 3.614 1.27 0 .196.359.748.782 1.238.456.455.748.91.651 1.01-.066.064.13.814.488 1.628.587 1.335.587 1.562.196 1.986-.359.358-.391.52-.065.619.293.13.293.195 0 .195-.52.032-.552.683-.032.683.195 0 .619-.227.913-.488.488-.455.619-.423 1.367.164.846.65 1.433 1.953.846 1.953-.163 0-.585-.163-.943-.359-.359-.163-.978-.292-1.367-.227-.619.096-.52.227.586.715.716.293 1.53.488 1.857.424.423-.131.52.032.423.715-.066.456-.13.911-.163 1.01-.066.097-.066.26-.032.391 0 .13-.456.391-1.043.586-.878.26-.91.293-.163.196.52-.065.944.065 1.042.326.228.553-.195.815-.75.488-.552-.358-1.725-.032-1.562.424.065.195.62.455 1.238.554l1.107.195-1.303.065c-.91.032-1.17.13-.846.326.586.391.748 1.27.292 1.563-.227.097-.26.032-.129-.164.13-.227.065-.39-.099-.39-.65 0-.358.683.587 1.497.683.587.911.978.78 1.53l-.195.716.65-.748.684-.716.75.651c.75.684.75.684.065.327-.456-.196-.748-.228-.748-.033 0 .163.195.391.423.488.195.097.066.097-.326 0-.587-.13-.749-.032-.749.488 0 .357.293.716.652.847.358.13.584.358.488.522-.131.163-.033.292.163.292.228 0 .326.228.195.488-.098.326.033.488.456.488.326 0 .716.292.814.65.097.36.359.652.553.652.195 0 .618.228.943.522.52.488.684.488 1.629 0 1.106-.554 1.758-.423 1.465.359-.098.26-.064.358.099.26.195-.097.423.032.585.292.163.293.618.391 1.368.26.748-.097.944-.228.651-.423-.292-.196-.326-.293-.064-.293.195 0 .326-.358.26-.814-.033-.455.032-.814.163-.814.488 0 .586-1.302.097-1.562-.424-.26-.424-.36.032-.782.26-.293.423-.587.326-.651-.064-.097.065-.36.359-.587.585-.488.651-1.302.097-1.302-.26 0-.163-.228.196-.488.552-.423.552-.488.096-.684-.748-.26-.683-.781.067-.781.391 0 .585-.228.552-.555 0-.358.196-.586.619-.586s.651-.228.651-.619c0-.359.196-.683.423-.75.261-.097.327.033.196.359-.196.488-.099.488.651.163.456-.228.847-.586.847-.846 0-.228.195-.424.455-.424.619 0 .815-.358.978-1.594.064-.555.26-1.206.488-1.433.195-.26.26-.555.129-.652-.097-.13.098-.227.488-.227 1.139 0 4.2-2.214 4.461-3.191.13-.488.227-.944.227-1.042-.032-.097.196-.293.456-.424.26-.13.456-.39.456-.52 0-.423-2.703.228-3.093.748-.163.228-.586.488-.911.619-.52.195-.52.163-.032-.587.292-.455.651-.814.814-.814.163 0 .292-.163.292-.359 0-.195-.227-.26-.52-.163-.358.13-.488.065-.358-.26.13-.292-.033-.554-.359-.619-.359-.097-.228-.163.292-.195.456 0 1.107.195 1.466.455.715.555 1.757.652 1.757.131 0-.163.164-.227.327-.13.586.358.326-.36-.327-.978-.358-.326-.651-.488-.651-.326 0 .13-.195.097-.391-.065-.617-.488-2.538-.78-2.538-.423a.327.327 0 0 1-.326.326c-.196 0-.293-.097-.293-.26.099-.619-.064-.748-.52-.391-.423.359-.455.326-.292-.13.228-.618 0-.65-.944-.13-.52.26-.423.097.293-.651.651-.619 1.237-.944 1.628-.847.359.065.912-.098 1.238-.358.619-.488.619-.488.032-.944-.52-.359-.554-.554-.228-.945.327-.391.293-.488-.26-.651-.358-.097-.586-.033-.488.13.097.13-.292.098-.878-.13l-1.075-.359.978-.195.977-.196-.879-.554c-.455-.327-1.042-.554-1.302-.52-1.074.13-1.27-.033-.911-.684.195-.358.586-.65.846-.65.261 0 .391-.13.293-.327-.099-.163-.619-.228-1.171-.097-.847.163-.912.097-.718-.423.196-.555.163-.555-.292-.196-.456.359-.587.326-.944-.326-.228-.424-.391-.88-.358-1.042.066-.131-.065-.456-.293-.716-.195-.26-.292-.684-.163-.944.228-.586-.163-.65-.717-.097-.293.293-.391.293-.391 0 0-.195.26-.52.586-.683.522-.326.522-.326-.032-.359-.391 0-.52-.13-.327-.423.131-.195.26-.716.26-1.139.033-.52-.163-.716-.683-.716-.75 0-1.758 1.238-1.758 2.181-.032.424-.163.36-.52-.326-.26-.488-.619-.879-.814-.879-.196 0-.26.131-.163.293.096.129-.033.554-.327.878-.488.587-.488.587-.292-.098.163-.587.064-.651-.456-.52-.359.097-.846.358-1.042.618-.195.26-.522.456-.685.456-.617 0 .488-1.01 1.595-1.465 1.757-.748 1.205-1.367-.978-1.206-.326.033-.52-.064-.423-.227.221-.357-1.049-.357-2.025.001Zm1.562.456c0 .064-.326.292-.717.488-.716.358-.716.326-.129-.131.683-.553.846-.617.846-.357Zm-3.027 1.66c-.097.098-.391.132-.619.033-.26-.097-.163-.195.195-.195.359-.033.553.064.424.163Zm16.604 10.06c0 .26-.131.488-.293.488-.129 0-.26-.228-.26-.488s.131-.488.26-.488c.162 0 .293.227.293.488Zm-.716 5.372c.097.163.032.326-.131.326-.196 0-.359-.163-.359-.326 0-.196.065-.327.131-.327.097.002.26.131.359.327Zm.585 1.628c-.097.359-.293.651-.456.651-.326 0-.391-.782-.065-1.074.424-.423.684-.228.521.423ZM98.365 29.26c-.099.163-.391.326-.587.326-.228 0-.195-.13.099-.326.619-.391.748-.391.488 0Zm2.019 1.497c-.097.097-.39.131-.618.033-.26-.097-.164-.196.195-.196.359-.032.553.066.423.163ZM80.557 4.875c.685.748.424.911-.617.39-.977-.487-2.572-.39-3.516.196-.39.26-.358.424.327 1.01l.782.684-.978-.228c-2.376-.554-3.939-.684-4.525-.391-.326.195-1.335.39-2.181.423-.879.065-1.758.228-1.921.326-.554.36-.359.748.52.946.553.163.782.39.651.683-.228.619-.195.619 1.042-.032 1.302-.651 2.865-.488 2.736.26-.065.423.195.52 1.465.554.879 0 1.953-.163 2.441-.359.944-.358 2.67-.097 2.41.36-.1.162-.815.358-1.563.487-1.823.292-2.41.78-1.661 1.367.488.358.488.423.099.423-.26 0-.782-.195-1.107-.456-.357-.26-1.238-.487-1.954-.487h-1.302l1.107.943c.619.554 1.53 1.14 2.018 1.367 1.171.488.847 1.01-.391.586-1.302-.487-2.735-.26-2.865.424-.096.423.099.586.716.586.619 0 .847.163.847.651 0 .424.228.651.65.651.36 0 .652.131.652.327 0 .522-1.498.39-1.953-.163-.228-.26-.75-.488-1.206-.488-.65 0-.748.13-.585.65.13.424.065.652-.227.652-.716 0-1.335.554-1.075.943.163.293.327.293.651.033.293-.26.488-.26.651 0 .327.554 2.442.423 2.442-.164 0-.423.129-.423.879.065.554.391.91.456.977.196.163-.424 1.4-.164 1.4.294 0 .423 1.986 0 2.573-.555.456-.423 0-.586-2.54-.91-1.042-.132-.195-.716 1.075-.716 1.074 0 1.302-.097 1.237-.555-.064-.488.065-.552.944-.358.782.163.977.097.782-.196-.131-.26.032-.586.455-.879 1.01-.715.88-1.433-.292-1.433-.52 0-.978-.163-.978-.326 0-.359.228-.391 2.117-.359.716 0 1.107-.065.911-.163-.911-.391-.39-.847.717-.651 1.466.292 2.442 0 2.442-.716.032-.359.782-.911 2.116-1.53 2.214-1.042 2.768-1.66 1.14-1.302-.75.163-.978.097-.978-.293 0-.586.977-.91 2.376-.814 1.337.097 2.572-.292 2.41-.782-.164-.488-1.368-.814-3.289-.846-.879-.033-2.148-.196-2.864-.424-1.042-.292-1.335-.292-1.562.033-.164.292-.327.326-.456.064-.292-.455-1.498-.455-1.498 0 0 .196-.26.26-.554.163-.326-.098-1.01-.26-1.562-.39-.818-.162-.916-.13-.558.229Z" fill="#89BF19"/><path d="M65.647 8.75c0 .163-.327.326-.684.326-.586 0-.619.097-.292.488.326.39.292.52-.131.683-.327.131-.488.423-.391.651.129.293-.065.456-.52.456-.651 0-.651.032-.131.619.423.455.846.586 1.79.455.683-.097 1.53 0 1.856.196.52.292.423.326-.586.358-1.367 0-1.53.293-.651 1.075.75.683 2.67 1.107 2.67.619 0-.196.228-.293.488-.196.327.131.488 0 .488-.359 0-.358.163-.488.456-.39.26.098.65-.033.846-.293.228-.26.651-.456.944-.488.358 0 .292-.097-.196-.292-.52-.196-.748-.587-.748-1.14 0-.715-.098-.814-.814-.618-.619.163-.814.064-.814-.327 0-.292-.26-.52-.587-.52-.326 0-.943-.358-1.367-.814-.78-.814-1.626-1.076-1.626-.49ZM119.202 11.03c.096.162.26.325.358.325.065 0 .131-.163.131-.326 0-.195-.163-.326-.358-.326-.164 0-.228.13-.131.326ZM55.977 13.178c1.074.586 1.139 1.106.163 1.106-.619 0-.651.065-.26.327.26.163 1.074.326 1.758.326.75 0 1.53.228 1.889.554.39.359.715.424.943.196.488-.488-.879-2.05-1.824-2.05-.391 0-.911-.228-1.14-.488-.227-.26-.878-.488-1.432-.488l-1.01.032.913.485ZM61.413 14.218c0 .554.815 1.042 1.694 1.042 1.042 0 1.205-.488.294-.977-.75-.39-1.988-.422-1.988-.065ZM48.815 15.978c.163.487 1.79.455 2.312-.065.228-.228-.097-.326-1.075-.326-.977 0-1.336.129-1.237.39ZM119.137 16.139c.292.065.814.065 1.139 0 .292-.097.034-.163-.585-.163s-.88.066-.554.163ZM44.158 16.66c-.814.164-1.856.587-2.344.912-.455.326-1.01.619-1.205.619-.748 0-.293.52.748.846 1.042.327 1.139.26 1.629-.586.618-1.01 1.01-1.14 1.302-.423.13.423.292.423.814.097.359-.228.554-.52.456-.684-.097-.163 0-.423.227-.554.686-.422-.129-.553-1.627-.226ZM63.204 17.996c.782.618 2.213.683 2.05.097-.097-.196-.716-.424-1.433-.488-1.202-.097-1.234-.065-.617.39ZM51.224 18.092c-.131.097 0 .456.292.782.292.327.423.748.292.912-.292.52-1.66.423-2.116-.131-.228-.26-.651-.488-.944-.488-.292 0-.715-.163-.91-.359-.424-.423-2.051-.13-2.051.359 0 .195.163.326.326.326.196 0 .327.163.327.327 0 .195-.196.326-.391.292-.88-.097-1.27.032-1.042.391.163.26.977.292 2.604.163 2.475-.228 3.387.196 1.27.587-.651.13-1.074.358-.977.554.292.456 1.725.359 2.864-.228.554-.292 1.693-.554 2.475-.586 1.171-.033 1.498-.164 1.595-.651.163-.716-.587-1.563-.815-.944-.195.587-1.074.13-1.433-.748-.26-.751-.91-1.013-1.366-.558ZM59.819 18.711c.26.293.26.456.032.456-.195 0-.456-.164-.554-.327-.292-.488-.814-.39-.814.131 0 .26-.196.554-.391.619-.228.099.096.195.782.195 1.042.033 1.139.13 1.01.716-.164.553-.065.651.586.553.456-.065.943-.424 1.139-.912.552-1.27.228-1.822-1.042-1.856-.944-.03-1.075.034-.748.425ZM65.971 18.483c0 .163.228.456.488.684.292.227.423.65.326.943-.064.293-.032.684.097.88.36.586 2.02.846 2.54.422.359-.292.488-.26.651.164.196.554 1.27.715 1.563.26.097-.163.618-.228 1.205-.131.651.098 1.139 0 1.302-.293.26-.39.359-.358.651.097.391.684 1.921.782 1.921.131 0-.26.26-.554.553-.65.455-.196.358-.36-.553-.88-.879-.554-1.367-.619-2.572-.455-.814.13-1.66.358-1.889.554-.26.195-.584.195-.977 0a1.145 1.145 0 0 0-1.204 0c-.488.26-.683.228-.91-.196-.164-.292-.62-.522-1.01-.522-.652-.032-.684-.064-.164-.455.326-.228.488-.52.359-.619-.325-.325-2.377-.258-2.377.066ZM39.21 22.325c-.782.131-.847.228-.52.748.326.488.292.748-.131 1.206-.684.782-1.042 2.376-.52 2.376.195 0 .715.327 1.106.684.684.619.814.65 1.726.26.554-.26 1.01-.587 1.01-.716 0-.456 2.084-2.247 3.223-2.735.814-.327 1.01-.553.75-.814-.589-.585-5.146-1.269-6.644-1.009ZM64.05 23.66c-.325.75-.325 1.139-.032 1.66.39.783 1.465.944 1.171.196-.13-.358.065-.488.782-.488.651 0 1.14-.26 1.629-.977l.683-.978h-.943c-.52 0-1.401-.097-1.921-.195-.847-.162-1.01-.065-1.369.782ZM60.502 23.335c-1.205.099-1.367.195-1.01.587.553.65-.227 1.628-.91 1.074-.229-.228-.521-.293-.652-.196-.26.26.52 1.206.978 1.206.195 0 .782.39 1.27.879.748.715 1.01.814 1.203.455.163-.228.456-.326.651-.228.196.13.488-.13.716-.683.26-.748.228-.977-.228-1.302-.326-.228-.716-.424-.879-.424-.195 0-.064-.292.228-.618.683-.75.456-.88-1.367-.75ZM69.878 24.279c-.718.586-.978 1.042-.847 1.53.097.358.032.814-.13 1.01-.228.292.096.52 1.074.846 1.27.391 1.302.423.455.553-1.203.163-.943.878.293.846.52 0 1.01.097 1.106.228.293.39 4.526.879 4.655.52.066-.195.359-.163.782.065.456.228.782.228.911.064.097-.195-.228-.554-.716-.814-1.17-.619-.748-.651.716-.065.619.26 1.14.651 1.14.815 0 .195.195.358.423.358.26 0 .715.293 1.01.62.552.586.552.65-.033.781-.359.131-.292.163.228.131 1.01-.064 2.8 1.14 3.028 2.018.098.423-.13.944-.62 1.433-.487.488-.717 1.01-.586 1.302.196.554-1.106 1.107-2.245.911-.62-.098-1.53.488-1.53 1.01 0 .391 3.027.228 3.287-.163.131-.163.488-.032.847.327.359.357.879.715 1.171.846.293.099.554.391.554.651 0 .391 1.954 1.433 3.842 2.018.684.196.75.163.456-.39-.195-.327-.716-.815-1.171-1.075-.456-.228-.847-.555-.847-.716 0-.359 1.238-.13 1.693.326.228.228.555.391.782.391.228 0 .488.196.587.391.097.228.129.033.064-.487-.064-.488.033-.88.196-.88.13 0 .032-.358-.26-.814-.293-.455-.651-.814-.847-.814-.359 0-1.856-1.66-1.889-2.084 0-.163.228-.099.488.129.424.359.456.326.293-.13-.099-.292-.067-.521.097-.521.586 0 2.052.814 2.052 1.139 0 .195.292.522.65.748.587.359.652.326.652-.26 0-.359.097-.619.26-.619.619.097 1.074-.065.911-.326-.099-.164.032-.391.326-.488.26-.099.391-.359.293-.554-.131-.196-.423-.26-.683-.164-.228.097-.522.033-.62-.13-.13-.196-.52-.327-.91-.327-.488 0-.587-.097-.293-.292.359-.196.359-.327 0-.587-.228-.195-.683-.326-.977-.326-.327 0-1.075-.26-1.694-.587-1.01-.554-1.074-.683-.782-1.53.196-.488.456-.911.651-.911.164 0 .196-.163.1-.326-.1-.196-.587-.228-1.075-.131-.716.163-.815.13-.456-.228.619-.684.456-.978-.423-.748-.488.13-.814.064-.814-.163 0-.196-.228-.359-.52-.359-.26 0-.392-.163-.293-.326.326-.52-.75-.78-1.302-.327-.391.327-.488.327-.488 0 0-.228-.26-.326-.651-.228-.716.196-.847-.097-.325-.618.488-.488-.196-1.01-1.726-1.27-1.106-.228-1.27-.163-1.433.455-.195.748-.618.912-.846.26-.097-.292-.26-.292-.684.065-.715.619-1.042.228-.586-.748.292-.651.228-.879-.423-1.498-.684-.65-.88-.683-1.954-.326-.782.26-1.074.488-.814.651.26.163.13.292-.391.456-.683.195-.716.227-.163.65.683.555.717.847 0 .847-.456 0-.456.065.066.651.423.488.488.782.26 1.01-.39.391-1.171.097-.911-.359.097-.163.032-.358-.13-.455-.164-.099-.392-.716-.521-1.367-.163-.879-.066-1.334.359-1.79.52-.587.52-.619-.293-.619-.455.009-1.302.4-1.856.888ZM44.973 25.125c-2.084 1.173-1.726 2.15.748 2.181.423 0 .65.131.554.327-.097.163-.619.326-1.139.326s-1.042.131-1.139.327c-.13.195.587.326 1.921.326 1.139 0 2.508.196 3.028.391.879.391.846.423-.88.488-.977.064-2.148.195-2.539.292-1.139.228-.391.978 1.238 1.238.846.13 1.302.39 1.302.683 0 .716 2.376.62 4.493-.129 1.562-.586 1.824-.586 2.897-.163 1.171.52 2.703.39 2.703-.196 0-.195-.293-.326-.684-.326-.39 0-.554-.13-.423-.359.097-.195.619-.292 1.139-.163 1.465.293 1.107-.359-.587-1.173-1.17-.552-1.594-.943-1.66-1.562-.065-.456-.26-.944-.424-1.107-.163-.195-.292-.586-.292-.911 0-.619-.911-1.238-1.824-1.238-.456 0-.52.228-.327 1.303.228 1.53-.227 1.725-.748.326-.292-.879-1.334-1.4-1.334-.683 0 .586-1.075.683-1.465.163-.26-.391-.652-.488-1.238-.327-.651.164-.879.097-.879-.292 0-.685-.911-.588-2.441.258ZM96.411 25.353c-.26.423.587 1.302 1.238 1.302.26 0 .651-.195.847-.423.26-.359.163-.52-.488-.814-1.01-.488-1.337-.488-1.597-.065Z" fill="#89BF19"/><path d="M63.921 26.85c-.097.098-.097.392 0 .652.099.292 0 .456-.26.391-.293-.065-.456.26-.456 1.01 0 1.042.097 1.139 1.4 1.562.75.26 1.368.619 1.368.782 0 .131-.196.196-.456.097-.26-.097-.554 0-.683.195-.099.196-.032.293.195.26.748-.195.62.62-.195 1.043-.52.292-.814.715-.814 1.237 0 .684-.067.716-.488.391-.26-.227-.488-.683-.488-1.01 0-.358-.131-.618-.293-.618-.163 0-.586-.097-.91-.196-.555-.163-.555-.163 0 .196.292.195.553.455.553.586 0 .359-4.656.196-5.696-.228-.52-.227-1.466-.294-2.181-.195-1.043.195-1.238.326-1.172.911.065.391-.032.75-.227.782-.164.065-.327-.065-.327-.26 0-.619-1.856-1.205-2.93-.879-.944.26-3.42.065-3.42-.292 0-.097.26-.391.587-.62.651-.487.587-.487-2.05-1.009a29.81 29.81 0 0 1-3.191-.943c-1.302-.522-1.66-.555-2.246-.164-.554.36-.715.36-.977-.032-.228-.326-.359-.326-.488-.032-.26.683-.879.488-1.822-.619-.488-.586-.815-.847-.716-.552.195.487-.032.65-2.344 1.66-.52.228-1.172.587-1.466.847-.554.456-1.399.26-1.074-.26.064-.131.846-.554 1.66-.944.815-.39 1.4-.814 1.303-.91-.099-.132-.554-.033-1.01.162-.456.228-1.139.555-1.562.75-.424.196-.88.293-1.075.26-.91-.163-1.497.065-1.302.554.163.424.032.456-.846.26-.587-.096-1.498-.39-2.05-.618-2.214-.912-3.32-1.238-4.558-1.302-.748-.033-1.986-.196-2.768-.327a12.742 12.742 0 0 0-2.637-.195c-.748.032-1.302-.131-1.594-.456-.293-.359-.847-.488-1.694-.423-.814.032-1.366-.097-1.53-.359-.227-.359-.423-.359-1.042.097-.423.292-1.106.52-1.497.52-.424 0-.748.131-.748.327 0 .163-.359.326-.815.326-.814 0-2.44 1.27-2.44 1.92 0 .196-.521.424-1.14.555-1.562.293-1.693.651-.423 1.302.586.293 1.203.748 1.334.978.131.26.62.455 1.042.455.456 0 .815.131.815.26 0 .164.39.424.911.587.847.326.814.359-.748.619-1.107.163-1.629.13-1.726-.13-.163-.521-.782-.455-2.376.26l-1.4.652.944.358c.684.26.847.424.52.62-.227.163-.292.358-.13.455.586.359 3.19.325 3.938-.065.391-.195.716-.326.75-.292.228.879.065 1.986-.359 2.116-.26.097-.814.293-1.205.488-.359.196-.846.26-1.01.131-.326-.195-1.693 1.693-1.693 2.345 0 .195.456.423.978.554.554.13.977.358.977.488 0 .163-.228.227-.488.13-.586-.227-.65.392-.097.748.228.131.782.26 1.238.26.651 0 .847.196.911.88.099.814.196.878.75.554.488-.26.782-.228 1.139.064.326.26.586.293.716.097.13-.195.554-.26.943-.163.683.196.683.228.131 1.334-.292.62-.911 1.335-1.433 1.563-.879.423-1.205 1.042-.52 1.042.195 0 .715-.292 1.171-.651.456-.359 1.042-.651 1.27-.651.26 0 .455-.228.455-.488s.097-.488.26-.488c.131 0 .716-.293 1.303-.651.846-.52 1.01-.782.75-1.107-.26-.292.064-.782 1.302-1.92 1.465-1.368 2.572-1.726 2.572-.815 0 .163-.131.228-.327.097-.455-.293-1.628 1.042-1.433 1.628.196.456.293.456.978 0 .423-.26 1.01-.488 1.27-.488.39 0 .488-.195.326-.618-.292-.912.359-1.14 1.53-.555.554.293 1.205.52 1.466.52.227 0 .423.131.423.293 0 .13.977.359 2.18.456 1.206.13 2.247.326 2.345.455.099.163.651.587 1.238.978.715.52 1.074.619 1.171.326.097-.294.26-.26.716.097.554.456.554.423.326-.326-.195-.716-.13-.684.782.326.52.619.978 1.302 1.01 1.498 0 .195.292.619.651.943.359.327.554.716.456.88-.097.162.064.26.39.195.424-.065.652.13.716.618.065.456.26.651.555.555.326-.131.39 0 .26.488-.131.487.13.977.879 1.66.586.52 1.205.978 1.399.978.26 0 .26.097 0 .359-.651.65-.097 1.562 1.074 1.79.619.097 1.107.39 1.107.619 0 .227.292.487.619.586.814.195 1.79 1.725 1.53 2.377-.164.455-.228.455-.716 0-.748-.782-1.562-.684-1.107.098.196.391.293 2.214.228 4.493-.13 3.55-.032 4.167.814 5.632.131.26.359.716.488.978.131.26.293.554.391.651.099.097.488.716.815 1.4.423.846 1.042 1.4 1.953 1.823 1.139.488 1.433.847 1.92 2.312.36.944.978 2.084 1.434 2.54.52.522.748 1.042.651 1.433-.13.456.097.782.782 1.171.52.327 1.042.88 1.139 1.238.196.782 2.084 2.735 2.084 2.149 0-.196-.195-.488-.423-.619-.228-.13-.619-.782-.879-1.4-.423-1.106-2.018-3.613-2.832-4.492-.228-.228-.424-.782-.424-1.206 0-1.237 1.27-.618 1.954.944.326.748 1.139 1.822 1.758 2.441.65.619 1.17 1.302 1.17 1.53 0 .26.098.456.261.456.13 0 .879.75 1.66 1.66 1.043 1.204 1.466 1.986 1.466 2.768.065 1.01 1.238 2.736 1.889 2.736.163 0 1.4.52 2.768 1.17 2.116.978 2.735 1.14 3.874.944 1.203-.163 1.498-.064 2.473.75.932.835 3.113 1.812 3.992 1.845.488 0 2.018 1.856 2.149 2.604.097.359.326.651.552.651.228 0 .75.293 1.14.684.39.358 1.106.782 1.628.911.488.097.879.358.879.554 0 .195.163.228.326.129.196-.129.26-.326.163-.488-.26-.423.748-1.042 1.4-.846 1.01.326.683 1.594-.52 1.953-.652.195-1.043.488-1.043.846a.932.932 0 0 1-.488.782c-.26.097-.488.391-.488.652 0 .227-.227.52-.488.651-.326.097-.423.488-.326 1.171.097.52.228 1.399.326 1.921.097.78-.098 1.205-1.074 2.246-1.334 1.433-2.018 2.669-2.018 3.711 0 .455.163.586.488.455.748-.26.585.26-.326 1.107-.62.587-.718.879-.456 1.335.163.358.228.618.097.618-.13 0 .13.359.554.782.814.815 1.53 2.117 3.223 5.828.88 1.921 1.238 2.312 2.736 3.159 2.28 1.302 2.8 1.921 2.864 3.451.099 2.148-.358 7.293-.715 7.944-.164.326-.327.943-.327 1.366 0 2.637-.292 4.885-.846 6.284-.327.879-.718 1.661-.815 1.725-.13.065-.163.651-.064 1.335.098.683 0 1.53-.196 1.921-.423.814-.13 1.79.488 1.562.326-.131.423.26.359 1.758-.033 1.074-.163 1.953-.26 1.953-.131 0-.293.456-.424 1.01-.163.846-.292.943-.65.651-.327-.26-.521-.292-.684-.032-.099.163.032.423.326.52.293.131.456.423.359.651-.099.26-.032.456.163.456.196 0 .196.227-.032.651-.196.391-.293.943-.196 1.237.097.293.26 1.042.327 1.661.064.684.455 1.367 1.01 1.855 1.042.911 1.042.911 2.376.423.911-.292.978-.455.814-1.433-.129-.879-.032-1.139.522-1.433.359-.228.684-.651.684-.978 0-.326.358-.846.814-1.139.879-.586 1.107-1.497.326-1.497-.26 0-.65-.327-.846-.716-.327-.619-.26-.814.65-1.562.553-.488 1.01-1.107 1.01-1.399 0-.293.132-.587.293-.684.163-.097.196-.78.13-1.497-.164-1.303-.164-1.303.814-1.107 1.042.228 1.334-.032 1.433-1.302.066-.684.26-.847.91-.847 1.662 0 3.158-.651 3.55-1.498.26-.618.293-.977.033-1.27-.196-.227-.293-.586-.26-.748.066-.195-.196-.586-.553-.846-.65-.488-.619-.488.196-.52.455 0 .943.097 1.042.227.13.099.619.228 1.074.261.944.032 2.735-1.726 2.735-2.702.033-.586 1.075-2.019 1.53-2.019.587-.033 1.726-2.377 1.726-3.55 0-.78.228-1.431.585-1.725 1.042-.944 2.995-1.889 3.94-1.889.488 0 1.139-.26 1.399-.587.75-.879 1.921-3.06 1.758-3.255-.098-.065 0-.456.196-.814.195-.359.391-1.563.423-2.669.032-1.367.228-2.214.619-2.637 2.409-2.703 2.963-3.679 2.832-5.013-.131-1.466-.423-1.954-1.042-1.954-.391 0-1.205-.455-1.824-.977-1.075-.944-1.986-1.172-4.687-1.075-.587 0-.847-.131-.814-.488.032-.357-.456-.715-1.369-1.008-1.302-.488-1.399-.455-1.855.164-.326.487-.717.651-1.302.552-.455-.097-.814-.292-.814-.456 0-.163-.228-.195-.488-.096-.75.292-.586-.327.327-1.303.878-.943 1.01-1.334.52-1.661-.163-.096-.391-.586-.52-1.074-.293-1.334-2.246-2.669-3.875-2.669-1.107 0-1.562-.228-2.735-1.334-.879-.815-1.595-1.238-1.921-1.139-.359.129-.423.064-.326-.293.13-.26.064-.554-.097-.651-.164-.097-.228-.423-.131-.748.163-.488.13-.488-.196.032-.195.293-.52.488-.683.391-.163-.131-.228-.358-.131-.52.292-.423-.716-.359-1.465.099-.52.326-.782.326-1.303.032-.326-.228-.846-.326-1.139-.228-.292.129-.782-.032-1.139-.358-.455-.391-.879-.488-1.627-.327-.945.196-1.01.293-.814 1.205.196.748.131.944-.195.847-.522-.195-.456-2.312.032-2.473.195-.065.228-.261.13-.424-.098-.195-.39-.163-.717.097-.292.228-.423.26-.292.065.099-.196.032-.619-.195-.911-.456-.62-1.434-.716-2.899-.36-.716.196-1.042.066-1.725-.682-.75-.847-.815-1.14-.684-2.865.196-2.441-.163-2.8-2.507-2.8h-1.79l.227-1.074c.391-1.661.554-2.214 1.042-3.419.26-.651.196-.716-.814-.716-1.498 0-2.149.293-2.149.944 0 .879-.814 1.758-1.66 1.856-1.825.228-2.8-.195-3.712-1.562-.977-1.431-1.106-2.897-.586-6.088.228-1.465.423-1.856 1.237-2.376 1.694-1.01 2.181-1.14 3.548-.88 1.921.392 2.05.36 2.246-.326.13-.488.423-.618 1.629-.552.814.032 1.693.228 1.953.455.359.327.554.327.717.065.359-.552 1.79.944 1.79 1.856 0 .424.36 1.303.78 1.954l.815 1.171.359-.782c.292-.651.228-1.173-.293-2.604-.39-.944-.683-2.085-.683-2.476 0-.683 1.986-3.027 2.54-3.027.163 0 .75-.456 1.336-1.042.683-.684.911-1.107.651-1.238-.26-.195-.26-.292.065-.456.326-.13.358-.26.098-.358-.228-.097-.326-.488-.228-.815.099-.358.033-.65-.163-.65-.195 0-.26-.327-.163-.684.196-.651.228-.651.587.228.358.782.455.846.65.39.132-.292.132-.715 0-.91-.098-.164 0-.327.26-.327.523 0 .978-.847.718-1.302-.13-.228.814-.716 2.312-1.14.488-.13.716-.455.716-.977 0-1.042.488-1.628 1.79-2.148.586-.228 1.107-.52 1.205-.62.293-.39 2.117-.846 2.768-.715.52.131.423.228-.488.522-.619.196-1.171.619-1.238.911-.13.684.684.782 1.206.163.195-.26.943-.65 1.66-.879.716-.227 1.303-.554 1.303-.715 0-.13.195-.26.455-.26s.587-.163.716-.391c.163-.228.065-.293-.292-.163-.391.13-.456.064-.327-.327.131-.359.067-.456-.163-.292-.228.129-.391.455-.391.715 0 .684-2.052.587-2.703-.13-.326-.327-.552-.847-.552-1.107 0-.293-.26-.619-.555-.748-.52-.228-.488-.293.163-.456.978-.26.944-.814-.064-.943-.944-.131-2.605.65-3.842 1.822-.52.456-.911.75-.911.619 0-.391 2.344-2.832 2.735-2.832.196 0 .553-.293.78-.651.359-.587.75-.651 3.29-.651 2.409 0 2.995-.097 3.614-.652.423-.358 1.074-.65 1.498-.65 1.53 0 1.79-2.05.326-2.768-.847-.424-1.01-.424-1.498 0-.586.522-1.302.65-1.302.227 0-.163.52-.487 1.14-.715l1.17-.456-1.203-.455c-1.562-.651-2.638-1.79-2.638-2.833 0-.455-.26-1.106-.553-1.433-.292-.292-.52-.683-.52-.814 0-.13-.228-.587-.52-1.01-.62-.911-1.303-.748-1.595.391-.099.456-.292.748-.391.651-.097-.097-.391 0-.651.26-.553.555-1.075.62-1.075.164 0-.196-.358-.327-.75-.327-.715 0-.781-.13-.683-1.628.033-.88-.032-1.595-.13-1.595-.652.097-1.107-.13-1.79-.879-.652-.716-1.14-.879-2.865-.943-2.312-.131-2.768 0-2.213.683.292.359.292.553-.033.944-.292.326-.292.487-.032.487.52 0 .456 1.367-.099 2.117-.423.586-.358.748.488 1.725.52.587.945 1.27.945 1.53 0 .62-1.53 2.377-2.312 2.605-.455.163-.554.326-.358.586.75.978.782 4.102.032 3.614-.163-.096-.292 0-.292.196 0 .195-.424.032-.944-.391-.977-.748-1.433-1.986-1.4-3.614.032-.814-.065-.88-1.238-.88-.684 0-1.369-.162-1.466-.326-.098-.195-.455-.326-.782-.326-.326 0-.977-.359-1.465-.814-.814-.748-2.508-1.302-3.419-1.075-.26.065-.554-.326-.75-.977-.195-.716-.455-1.042-.943-1.042-.359 0-.716-.228-.847-.52-.292-.815.488-2.897 1.498-4.006.522-.554.847-1.074.748-1.173-.097-.097.065-.163.359-.163.977 0 .911-.65-.163-1.106-1.204-.522-.456-.716.846-.196.684.26.847.228.847-.196 0-.358.195-.455.52-.326.619.228 1.758-.326 1.758-.911 0-.228-.587-.684-1.302-1.01-.718-.326-1.206-.716-1.107-.846.064-.164.651-.033 1.27.26.911.455 1.203.455 1.628.096.293-.227.456-.618.36-.846-.196-.488.683-.879.943-.456.13.196.455.327.748.327.39 0 .423-.097.13-.391-.618-.62-.455-1.075.196-.488.716.65 1.4.715 1.953.163.52-.52.488-1.4-.097-1.889-.26-.227-.487-.619-.487-.879 0-.292.195-.423.487-.292.684.26.62-.554-.098-.977-1.042-.652-2.67-.88-2.67-.392 0 .26.164.62.392.847.292.293.228.423-.163.587-.293.096-.553.358-.553.586 0 .196-.292.716-.651 1.171l-.629.82-.75-.716c-.552-.552-.618-.846-.358-1.107.26-.26.292-.586.064-1.01-.423-.781-.846-.747-1.106.065-.293.944-.718.814-.978-.326-.163-.748-.391-.978-1.01-.978-.846 0-1.01-.292-.455-.846.26-.26.195-.488-.164-.782-.26-.228-.487-.684-.487-1.01 0-.391-.36-.748-.847-.944-.974-.387-.942-.387-1.202-.127Z" fill="#89BF19"/><path d="M61.413 30.725c0 .26-.195.488-.39.488-.847.032.878.977 1.757.977 1.14 0 1.172-.423.065-1.27-1.04-.814-1.431-.846-1.431-.195ZM88.044 31.116c.228.097.522.065.619-.032.13-.099-.065-.195-.423-.163-.358 0-.456.097-.196.195ZM79.874 33.297c-.097.228-.032.587.163.782.456.456 1.562-.097 1.562-.748 0-.62-1.497-.653-1.725-.034ZM72.19 37.53c-.196.52-.293 1.01-.196 1.107.065.098 0 .358-.195.619-.293.326-.26.423.129.423.26 0 .554.163.619.359.064.227.39.227.977-.065.488-.195.815-.522.716-.651-.292-.488.619-.327 1.205.228.391.358.782.455 1.172.26.52-.228.52-.26-.131-.359-.424-.097-.748-.326-.748-.52 0-.423-1.758-1.53-2.442-1.53-.227 0-.487-.196-.586-.423-.097-.198-.325.03-.52.552ZM28.206 47.817c0 .163.227.327.488.327.26 0 .488-.164.488-.327 0-.195-.228-.326-.488-.326s-.488.13-.488.326ZM13.392 48.111c-.097.196-.327.292-.488.196-.162-.097-.359-.033-.456.13-.13.164-.032.424.163.52.391.26 1.53-.683 1.206-.977-.099-.13-.294-.032-.425.131ZM29.215 48.99c0 .359.097.456.196.195.097-.227.064-.52-.032-.618-.099-.131-.196.064-.164.423ZM30.81 50.26c0 .488.587 1.302.782 1.107.099-.097-.032-.456-.292-.814-.262-.327-.458-.488-.49-.293ZM5.742 50.91c-.52.62-.032.62.782 0 .52-.39.554-.487.13-.487-.261-.002-.684.226-.912.488ZM3.658 52.017c-.131.164.097.228.455.131.748-.195.847-.423.196-.423-.26-.002-.553.13-.651.292ZM31.201 52.993c.065.228.228.391.359.391.39-.032.292-.488-.097-.65-.23-.065-.36.064-.262.26ZM97.29 56.835c-.358.52-.748 1.4-.879 1.954-.098.586-.358 1.074-.52 1.074-.161 0-.292.163-.292.359 0 .195.586.326 1.399.292 2.28-.097 2.312-.097 1.824.554-.359.488-.292.456.292-.032.718-.619.75-.619 1.173-.032.293.423.488.488.651.195.13-.195 0-.455-.292-.554-.292-.13-.456-.423-.359-.651.097-.26.033-.456-.163-.456-.195 0-.292-.227-.163-.488.129-.358-.032-.487-.619-.487-.423 0-.879-.164-.977-.327-.131-.195-.359-.26-.52-.163-.164.13-.293.065-.293-.13 0-.162.131-.39.292-.487.392-.26.684-1.498.36-1.498-.164-.002-.555.39-.914.877ZM35.922 57.454c.391.26 1.107.879 1.629 1.302.846.716 1.725 1.042 1.725.587 0-.555-1.986-2.02-2.93-2.214-1.107-.195-1.107-.195-.424.325ZM73.883 86.788c-.879.326-.39.683.522.39.748-.26 1.171-.227 1.953.164.522.292 1.173.52 1.4.52.227 0 .814.359 1.302.814.586.522 1.27.815 1.953.815h1.074l-.814-.651c-.456-.36-1.075-.651-1.369-.651-.324 0-.584-.164-.584-.327 0-.195-.196-.326-.456-.326-.228 0-.879-.228-1.367-.488-.913-.456-2.8-.619-3.614-.26ZM11.275 89.815c0 .163.164.327.327.327a.327.327 0 0 0 .326-.327c0-.195-.13-.326-.326-.326a.327.327 0 0 0-.327.326ZM83.486 90.108c.456.488.424.554-.455.715l-.944.228 1.14.065c.618.064 1.366.064 1.628.032.26-.032.879-.098 1.367-.13.52-.033.91-.164.91-.26 0-.36-1.92-1.043-3.06-1.108-1.007-.062-1.074.002-.586.458ZM88.435 91.117c0 .164.228.327.52.327.26 0 .391-.163.293-.327a.622.622 0 0 0-.52-.326c-.162.002-.293.13-.293.326ZM79.255 91.346c.196.064.587.064.814 0 .196-.097.033-.164-.423-.164-.456 0-.619.067-.391.164ZM98.528 112.93c0 .522.163.684.748.587.39-.065.717-.327.717-.587 0-.26-.326-.52-.717-.586-.585-.097-.748.066-.748.586ZM78.082 154.115c0 .52.065.715.163.391.065-.293.065-.75 0-.978-.097-.194-.163.034-.163.587ZM78.668 165.836c.228.26.553.488.716.488.163 0 .099-.228-.195-.488-.26-.26-.587-.488-.716-.488-.097-.002-.032.226.195.488ZM80.166 166.616c-.13.228-.163.488-.064.587.292.292.618-.131.455-.587-.13-.357-.195-.357-.39 0Z" fill="#89BF19"/></svg>