<svg width="83" height="84" fill="none" xmlns="http://www.w3.org/2000/svg"><path d="m16.52 41.625-9.687-4.167c-1.389-.555-2.205-1.562-2.45-3.02-.244-1.459.156-2.709 1.2-3.75l13.125-13.125a8.344 8.344 0 0 1 3.438-2.084 8.044 8.044 0 0 1 4.062-.208l5.417 1.146c-3.68 4.375-6.614 8.351-8.8 11.929-2.186 3.578-4.287 8.004-6.304 13.28ZM77.77 1c.556 0 1.112.139 1.668.417a5.56 5.56 0 0 1 1.458 1.041 5.56 5.56 0 0 1 1.041 1.459c.278.555.417 1.11.417 1.666.278 6.459-1.093 13.16-4.112 20.105-3.02 6.944-7.274 13.16-12.763 18.645-3.75 3.75-7.36 6.755-10.833 9.013-3.472 2.258-7.57 4.393-12.292 6.404a7.627 7.627 0 0 1-2.758.52c-.936 0-1.753-.346-2.45-1.04L24.125 46.207c-.694-.694-1.042-1.51-1.042-2.45 0-.939.174-1.858.521-2.758 2.014-4.653 4.15-8.733 6.409-12.242 2.258-3.508 5.26-7.136 9.008-10.883 5.486-5.486 11.701-9.74 18.646-12.762C64.61 2.09 71.312.72 77.77 1ZM51.314 32.042c1.597 1.597 3.56 2.396 5.887 2.396 2.328 0 4.289-.799 5.883-2.396 1.598-1.598 2.396-3.559 2.396-5.884s-.798-4.287-2.396-5.887c-1.597-1.597-3.56-2.396-5.887-2.396-2.328 0-4.29.799-5.883 2.396-1.598 1.597-2.396 3.56-2.396 5.887 0 2.328.798 4.29 2.395 5.884Zm-9.584 34.791c5.278-2.013 9.722-4.113 13.334-6.3 3.61-2.186 7.604-5.12 11.979-8.804l1.041 5.417a8.276 8.276 0 0 1-.208 4.117 8.276 8.276 0 0 1-2.083 3.487L52.667 77.875c-1.042 1.042-2.292 1.424-3.75 1.146-1.459-.278-2.466-1.111-3.021-2.5l-4.167-9.688ZM7.875 57.854c2.43-2.416 5.389-3.643 8.875-3.679 3.486-.033 6.438 1.165 8.854 3.596 2.417 2.43 3.625 5.382 3.625 8.854 0 3.472-1.215 6.424-3.646 8.854-1.736 1.736-4.634 3.23-8.695 4.48-4.062 1.25-9.67 2.36-16.826 3.333.973-7.153 2.084-12.75 3.334-16.792 1.25-4.039 2.743-6.92 4.479-8.646Z" fill="#89BF19"/></svg>