<svg width="76" height="88" fill="none" xmlns="http://www.w3.org/2000/svg"><path d="M75.5 19.084c0 8.041-6.542 14.583-14.583 14.583-8.042 0-14.584-6.542-14.584-14.584 0-8.041 6.542-14.583 14.584-14.583 8.041 0 14.583 6.542 14.583 14.584Zm-8.333 22.041c-2.084.542-4.167.875-6.25.875A22.958 22.958 0 0 1 38 19.084c0-6.125 2.417-11.667 6.25-15.792A8.042 8.042 0 0 0 38 .334c-4.583 0-8.333 3.75-8.333 8.333v1.208C17.292 13.542 8.833 24.917 8.833 37.834v25L.5 71.166v4.166h75v-4.166l-8.333-8.334V41.126ZM38 87.834a8.304 8.304 0 0 0 8.333-8.334H29.667A8.333 8.333 0 0 0 38 87.834Z" fill="#89BF19"/></svg>