<svg width="100" height="100" fill="none" xmlns="http://www.w3.org/2000/svg"><path d="M90.715 36.015c-.643-1.558.089-3.354 1.643-4.002a3.03 3.03 0 0 1 3.972 1.657 47.765 47.765 0 0 1 2.75 9.06c.61 3.06.928 6.225.928 9.464 0 12.267-4.557 23.46-12.06 31.963-7.585 8.594-18.18 14.433-30.127 15.835-1.669.188-3.174-1.017-3.37-2.698-.187-1.681 1.01-3.198 2.678-3.395 10.408-1.222 19.653-6.314 26.278-13.817 6.543-7.413 10.514-17.18 10.514-27.888 0-2.83-.277-5.593-.806-8.266a42.216 42.216 0 0 0-2.4-7.913ZM69.416 40.64a.94.94 0 0 1-.106.287 3.374 3.374 0 0 0-.13.762v.082L67.92 60.385c.195.599.456 1.058.781 1.353.301.28.684.427 1.164.443h.106l5.298.37h.04c.822.098 1.433-.083 1.864-.517.488-.492.805-1.32.976-2.444v-.016l2.751-16.68c0-.024 0-.057.008-.081.18-.943.008-1.583-.431-1.977-.513-.45-1.384-.688-2.54-.77h-.08l-5.966-.41v-.009c-.911-.065-1.595.074-2.026.419a1.499 1.499 0 0 0-.448.574Zm-7.234 20.188a.928.928 0 0 1-.228-.475L54.492 44.33c-.838-1.657-1.684-1.755-2.547-1.32-.61.311-1.261.836-1.92 1.36-.4.32-.79.632-1.124.878l-1.546 1.115-.008.008c-1.123.788-2.352 1.173-3.5 1.19a4.688 4.688 0 0 1-2.115-.435c-.66-.303-1.23-.755-1.636-1.353-.44-.64-.708-1.435-.724-2.345 0 0 .203-.566.244-.607l5.03-5.248a8.422 8.422 0 0 0-2.686.188c-1.27.304-2.474.902-3.793 1.69a.874.874 0 0 1-.537.147l-5.355-.369-.691 10.193-.424 6.519 3.117.213a.826.826 0 0 1 .708.484l3.41 7.068c.497 1.034.936 1.92 1.522 2.526.545.574 1.294.951 2.474 1.066.44.041.87 0 1.278-.14.252-.081.504-.204.757-.368l-2.19-4.896a.852.852 0 0 1 .432-1.131.841.841 0 0 1 1.123.434l2.376 5.33c.977.59 1.888.812 2.726.697.765-.115 1.506-.516 2.23-1.213l-3.507-6.487a.868.868 0 0 1 .341-1.164.854.854 0 0 1 1.156.344l3.695 6.831c.708.353 1.4.468 2.075.328.643-.131 1.31-.5 1.985-1.115l-3.263-7.372a.862.862 0 0 1 .431-1.14.847.847 0 0 1 1.132.443l3.385 7.626c.488.328 1.066.443 1.628.394.496-.05.984-.23 1.391-.509.39-.27.716-.64.88-1.066.186-.467.21-1.025 0-1.648l-.27-.648Zm4.272.525-2.27-.156c.244.927.17 1.78-.123 2.526a4.12 4.12 0 0 1-1.497 1.853 4.67 4.67 0 0 1-2.205.804 4.204 4.204 0 0 1-2.287-.41c-.92.844-1.872 1.353-2.832 1.558-.968.197-1.929.073-2.881-.337-.993.968-2.059 1.55-3.206 1.714-1.164.172-2.369-.09-3.622-.787a5.533 5.533 0 0 1-1.318.664 4.523 4.523 0 0 1-1.986.222c-1.636-.164-2.702-.722-3.524-1.575-.789-.811-1.285-1.812-1.847-2.976l-3.19-6.618-2.808-.197c-.22.812-.553.976-1.009 1.501-1.025 1.156-1.912 1.763-3.49 1.673-2.296-.131-6.365.172-7.683-1.583-.668-.894-1.066-2.288-1.14-4.313 0-.025 0-.05-.008-.074l-.187-15.892c-.138-1.722.228-2.91.96-3.681.741-.788 1.807-1.091 3.077-1.058h.105l6.478.45v.009c1.22.066 2.263.353 3.028.927.618.459 1.033 1.082 1.22 1.902l5.282.36c1.392-.811 2.677-1.426 4.077-1.77 1.375-.328 2.832-.378 4.541-.05l1.929-2a.477.477 0 0 1 .114-.107 7.375 7.375 0 0 1 1.758-1.083c.659-.295 1.358-.5 2.083-.64 1.147-.212 2.344-.245 3.5-.147 1.31.115 2.57.402 3.653.763 2.067.705 3.8 2.115 5.477 3.485.374.303.749.615 1.196.951.017.008.033.025.05.033l2.44 1.902c.139-.172.302-.328.48-.467.782-.615 1.848-.87 3.199-.779v-.008l5.965.41c.025 0 .049 0 .065.008 1.53.098 2.75.467 3.565 1.197.903.812 1.277 1.976.976 3.584 0 .016-.008.024-.008.04l-2.75 16.663c-.22 1.493-.7 2.64-1.457 3.403-.806.82-1.872 1.173-3.231 1.017l-5.298-.369h-.008c-.92-.016-1.685-.32-2.303-.894-.423-.41-.781-.967-1.05-1.648Zm-42.594-9.488a1.164 1.164 0 0 1 1.074 1.247 1.156 1.156 0 0 1-1.237 1.082 1.162 1.162 0 0 1-1.074-1.238c.04-.64.594-1.14 1.237-1.09Zm50.227 3.461a1.162 1.162 0 0 1 1.075 1.238 1.156 1.156 0 0 1-1.237 1.083 1.156 1.156 0 0 1-1.074-1.239c.04-.64.594-1.123 1.236-1.082Zm-44.067-8.011.586-8.561c.033-.451-.252-1.017-.61-1.288-.472-.352-1.205-.533-2.116-.582l-6.502-.443c-.595-.04-1.408.074-1.84.525-.398.418-.586 1.18-.488 2.386v.074l.187 14.883v.025c.057 1.648.342 2.722.798 3.337.407.55 7.332 1.673 8.528.312.473-.541.75-1.41.855-2.559h-.008l.586-8.126.024.017Zm57.015-27.413-19.71 3.558 4.085-5.838c-6.225-6.691-13.15-9.094-21.427-6.61C58.757.058 70.418.042 79.54 5.963L83.7 0l3.336 19.902Zm-55.16 55.071-4.085 5.839c6.226 6.691 13.151 9.094 21.428 6.61-8.781 10.946-20.443 10.963-29.566 5.042l-4.166 5.962-3.329-19.894 19.719-3.559Zm-21.695-8.11a3.06 3.06 0 0 1-1.416 4.084 3.017 3.017 0 0 1-4.053-1.427A47.637 47.637 0 0 1 1.196 59.37 48.599 48.599 0 0 1 0 48.676c0-12.013 4.378-23.01 11.621-31.448C18.953 8.676 29.224 2.755 40.853 1.05c1.66-.238 3.198.926 3.434 2.599.236 1.673-.92 3.223-2.58 3.46-10.14 1.485-19.1 6.65-25.504 14.113-6.299 7.363-10.116 16.95-10.116 27.454 0 3.239.358 6.371 1.026 9.356a42.288 42.288 0 0 0 3.068 8.832Z" fill="#89BF19"/></svg>