<svg width="84" height="85" fill="none" xmlns="http://www.w3.org/2000/svg"><path d="M24.291 3.417a3.125 3.125 0 1 0-6.25 0V10c-6 .479-9.933 1.654-12.824 4.55C2.32 17.442 1.146 21.379.662 27.375h82.675c-.483-6-1.658-9.933-4.554-12.825-2.892-2.896-6.829-4.071-12.825-4.554v-6.58a3.125 3.125 0 0 0-6.25 0v6.305c-2.77-.055-5.879-.055-9.375-.055H33.667c-3.496 0-6.605 0-9.376.055V3.417Z" fill="#89BF19"/><path fill-rule="evenodd" clip-rule="evenodd" d="M.333 43c0-3.496 0-6.604.054-9.375h83.225c.055 2.77.055 5.88.055 9.375v8.333c0 15.713 0 23.571-4.884 28.45-4.879 4.884-12.737 4.884-28.45 4.884H33.667c-15.713 0-23.571 0-28.45-4.884C.333 74.904.333 67.046.333 51.333V43Zm62.5 8.333a4.167 4.167 0 1 0 0-8.333 4.167 4.167 0 0 0 0 8.333Zm0 16.667a4.167 4.167 0 1 0 0-8.333 4.167 4.167 0 0 0 0 8.333ZM46.167 47.167a4.167 4.167 0 1 1-8.334 0 4.167 4.167 0 0 1 8.334 0Zm0 16.666a4.167 4.167 0 1 1-8.334 0 4.167 4.167 0 0 1 8.334 0Zm-25-12.5a4.167 4.167 0 1 0 0-8.333 4.167 4.167 0 0 0 0 8.333Zm0 16.667a4.167 4.167 0 1 0 0-8.333 4.167 4.167 0 0 0 0 8.333Z" fill="#89BF19"/></svg>