<svg width="146" height="192" viewBox="0 0 146 192" fill="none" xmlns="http://www.w3.org/2000/svg">
<g clip-path="url(#clip0_167_4)">
<path d="M28.4721 101.418L13.8303 106.673C12.8595 107.022 12.0668 107.741 11.6267 108.674C11.1866 109.607 11.1351 110.676 11.4835 111.647L21.1175 138.491C21.466 139.462 22.1858 140.254 23.1186 140.694C24.0514 141.134 25.1209 141.186 26.0917 140.837L40.7336 135.583C41.7044 135.234 42.4971 134.514 42.9372 133.581C43.3773 132.649 43.4288 131.579 43.0803 130.608L33.4463 103.765C33.0979 102.794 32.3781 102.001 31.4453 101.561C30.5124 101.121 29.443 101.07 28.4721 101.418ZM14.7061 109.113L29.348 103.858C29.6716 103.742 30.0281 103.76 30.339 103.906C30.65 104.053 30.8899 104.317 31.006 104.641L31.4439 105.861L14.3617 111.992L13.9238 110.771C13.8077 110.448 13.8249 110.091 13.9716 109.78C14.1183 109.469 14.3825 109.23 14.7061 109.113ZM39.8578 133.142L25.2159 138.397C24.8923 138.513 24.5358 138.496 24.2249 138.349C23.9139 138.203 23.674 137.939 23.5578 137.615L23.1199 136.395L40.2021 130.264L40.64 131.484C40.7562 131.808 40.739 132.164 40.5923 132.475C40.4456 132.786 40.1814 133.026 39.8578 133.142Z" fill="#89BF19"/>
</g>
<g clip-path="url(#clip1_167_4)">
<path d="M125.876 120.668L89.7261 109.739C87.9284 109.196 85.9885 109.389 84.3331 110.275C82.6776 111.162 81.4423 112.67 80.8988 114.468L67.2377 159.655C66.6943 161.453 66.8872 163.393 67.774 165.048C68.6609 166.704 70.169 167.939 71.9667 168.483L108.117 179.412C109.914 179.955 111.854 179.762 113.51 178.875C115.165 177.988 116.4 176.48 116.944 174.683L130.605 129.495C131.148 127.698 130.955 125.758 130.069 124.102C129.182 122.447 127.674 121.211 125.876 120.668ZM88.36 114.258L124.51 125.187C125.109 125.368 125.612 125.78 125.907 126.331C126.203 126.883 126.267 127.53 126.086 128.129L125.403 130.389L84.7345 118.094L85.4176 115.834C85.5987 115.235 86.0105 114.732 86.5623 114.437C87.1141 114.141 87.7608 114.077 88.36 114.258ZM109.483 174.893L73.3328 163.964C72.7336 163.783 72.2308 163.371 71.9352 162.819C71.6396 162.267 71.5753 161.621 71.7565 161.022L72.4395 158.762L113.108 171.057L112.425 173.317C112.244 173.916 111.832 174.418 111.28 174.714C110.729 175.01 110.082 175.074 109.483 174.893Z" fill="#89BF19"/>
</g>
<g clip-path="url(#clip2_167_4)">
<path d="M39.5285 88.8877C38.3844 88.9879 37.3909 88.6843 36.5477 87.9769C35.7046 87.2696 35.2344 86.3451 35.1371 85.2036C35.0369 84.0595 35.3405 83.066 36.0479 82.2228C36.7552 81.3797 37.6797 80.9095 38.8212 80.8122L42.859 80.4586L38.262 27.9683C38.0675 25.7476 38.6924 23.7765 40.1366 22.0551C41.5807 20.3337 43.412 19.3772 45.6302 19.1857L110.234 13.5279C112.454 13.3334 114.426 13.9583 116.147 15.4024C117.868 16.8466 118.825 18.6778 119.016 20.8961L123.613 73.3864L127.651 73.0328C128.795 72.9326 129.789 73.2362 130.632 73.9436C131.475 74.6509 131.945 75.5754 132.042 76.7169C132.143 77.861 131.839 78.8545 131.132 79.6977C130.424 80.5408 129.5 81.011 128.358 81.1083L39.5285 88.8877ZM77.1795 77.4529L89.2927 76.3921C89.831 76.345 90.2844 76.1018 90.6528 75.6627C91.0213 75.2236 91.1819 74.7348 91.1347 74.1965C91.0876 73.6581 90.8445 73.2047 90.4053 72.8363C89.9662 72.4679 89.4774 72.3073 88.9391 72.3544L76.8259 73.4152C76.2876 73.4624 75.8342 73.7055 75.4658 74.1446C75.0974 74.5838 74.9367 75.0725 74.9839 75.6109C75.031 76.1493 75.2742 76.6026 75.7133 76.9711C76.1524 77.3395 76.6412 77.5001 77.1795 77.4529Z" fill="#89BF19"/>
</g>
<defs>
<clipPath id="clip0_167_4">
<rect width="41.4835" height="41.4835" fill="white" transform="translate(0.75293 108.612) rotate(-19.7429)"/>
</clipPath>
<clipPath id="clip1_167_4">
<rect width="75.5316" height="75.5316" fill="white" transform="translate(73.7003 97.4966) rotate(16.8212)"/>
</clipPath>
<clipPath id="clip2_167_4">
<rect width="97.2761" height="97.2761" fill="white" transform="translate(28.4186 8.48682) rotate(-5.005)"/>
</clipPath>
</defs>
</svg>
